solid OpenSCAD_Model
  facet normal -0.866025 -0.5 0
    outer loop
      vertex 19.6412 11.7448 -0.5
      vertex 17.3939 15.6374 0.5
      vertex 17.3939 15.6374 -0.5
    endloop
  endfacet
  facet normal -0.866025 -0.5 0
    outer loop
      vertex 17.3939 15.6374 0.5
      vertex 19.6412 11.7448 -0.5
      vertex 19.6412 11.7448 0.5
    endloop
  endfacet
  facet normal -0.743145 -0.669131 0
    outer loop
      vertex 16.2266 16.9337 -0.5
      vertex 14.3863 18.9776 0.5
      vertex 14.3863 18.9776 -0.5
    endloop
  endfacet
  facet normal -0.743145 -0.669131 0
    outer loop
      vertex 14.3863 18.9776 0.5
      vertex 16.2266 16.9337 -0.5
      vertex 16.2266 16.9337 0.5
    endloop
  endfacet
  facet normal -0.743146 -0.66913 0
    outer loop
      vertex 17.3939 15.6374 -0.5
      vertex 16.8967 16.1896 0.5
      vertex 16.8967 16.1896 -0.5
    endloop
  endfacet
  facet normal -0.743146 -0.66913 0
    outer loop
      vertex 16.8967 16.1896 0.5
      vertex 17.3939 15.6374 -0.5
      vertex 17.3939 15.6374 0.5
    endloop
  endfacet
  facet normal 0.207912 -0.978148 0
    outer loop
      vertex -6.64386 23.4477 -0.5
      vertex -2.24736 24.3822 0.5
      vertex -6.64386 23.4477 0.5
    endloop
  endfacet
  facet normal 0.207912 -0.978148 0
    outer loop
      vertex -2.24736 24.3822 0.5
      vertex -6.64386 23.4477 -0.5
      vertex -2.24736 24.3822 -0.5
    endloop
  endfacet
  facet normal 0.866025 -0.5 0
    outer loop
      vertex -19.6412 11.7448 0.5
      vertex -17.3939 15.6374 -0.5
      vertex -17.3939 15.6374 0.5
    endloop
  endfacet
  facet normal 0.866025 -0.5 0
    outer loop
      vertex -17.3939 15.6374 -0.5
      vertex -19.6412 11.7448 0.5
      vertex -19.6412 11.7448 -0.5
    endloop
  endfacet
  facet normal -0.994522 0.104528 0
    outer loop
      vertex 21.0302 -1.4701 -0.5
      vertex 21.1321 -0.5 0.5
      vertex 21.1321 -0.5 -0.5
    endloop
  endfacet
  facet normal -0.994522 0.104528 0
    outer loop
      vertex 21.1321 -0.5 0.5
      vertex 21.0302 -1.4701 -0.5
      vertex 21.0302 -1.4701 0.5
    endloop
  endfacet
  facet normal -0.994522 0.104528 0
    outer loop
      vertex 21.2372 0.499999 -0.5
      vertex 21.5 3 0.5
      vertex 21.5 3 -0.5
    endloop
  endfacet
  facet normal -0.994522 0.104528 0
    outer loop
      vertex 21.5 3 0.5
      vertex 21.2372 0.499999 -0.5
      vertex 21.2372 0.499999 0.5
    endloop
  endfacet
  facet normal -0.951057 -0.309017 0
    outer loop
      vertex 20.5198 9.04079 -0.5
      vertex 19.6412 11.7448 0.5
      vertex 19.6412 11.7448 -0.5
    endloop
  endfacet
  facet normal -0.951057 -0.309017 0
    outer loop
      vertex 19.6412 11.7448 0.5
      vertex 20.5198 9.04079 -0.5
      vertex 20.5198 9.04079 0.5
    endloop
  endfacet
  facet normal -0.951056 -0.309017 0
    outer loop
      vertex 21.0302 7.4701 -0.5
      vertex 20.8298 8.08679 0.5
      vertex 20.8298 8.08679 -0.5
    endloop
  endfacet
  facet normal -0.951056 -0.309017 0
    outer loop
      vertex 20.8298 8.08679 0.5
      vertex 21.0302 7.4701 -0.5
      vertex 21.0302 7.4701 0.5
    endloop
  endfacet
  facet normal -0.587785 -0.809017 0
    outer loop
      vertex 10.75 21.6195 -0.5
      vertex 14.3863 18.9776 0.5
      vertex 10.75 21.6195 0.5
    endloop
  endfacet
  facet normal -0.587785 -0.809017 -0
    outer loop
      vertex 14.3863 18.9776 0.5
      vertex 10.75 21.6195 -0.5
      vertex 14.3863 18.9776 -0.5
    endloop
  endfacet
  facet normal 0 -1 0
    outer loop
      vertex -2.24736 24.3822 -0.5
      vertex -0.5 24.3822 0.5
      vertex -2.24736 24.3822 0.5
    endloop
  endfacet
  facet normal 0 -1 -0
    outer loop
      vertex -0.5 24.3822 0.5
      vertex -2.24736 24.3822 -0.5
      vertex -0.5 24.3822 -0.5
    endloop
  endfacet
  facet normal 0 -1 0
    outer loop
      vertex 0.5 24.3822 -0.5
      vertex 2.24736 24.3822 0.5
      vertex 0.5 24.3822 0.5
    endloop
  endfacet
  facet normal 0 -1 -0
    outer loop
      vertex 2.24736 24.3822 0.5
      vertex 0.5 24.3822 -0.5
      vertex 2.24736 24.3822 -0.5
    endloop
  endfacet
  facet normal -0.406737 -0.913545 0
    outer loop
      vertex 6.64386 23.4477 -0.5
      vertex 8.77765 22.4977 0.5
      vertex 6.64386 23.4477 0.5
    endloop
  endfacet
  facet normal -0.406737 -0.913545 -0
    outer loop
      vertex 8.77765 22.4977 0.5
      vertex 6.64386 23.4477 -0.5
      vertex 8.77765 22.4977 -0.5
    endloop
  endfacet
  facet normal -0.406737 -0.913545 0
    outer loop
      vertex 9.69151 22.0908 -0.5
      vertex 10.75 21.6195 0.5
      vertex 9.69151 22.0908 0.5
    endloop
  endfacet
  facet normal -0.406737 -0.913545 -0
    outer loop
      vertex 10.75 21.6195 0.5
      vertex 9.69151 22.0908 -0.5
      vertex 10.75 21.6195 -0.5
    endloop
  endfacet
  facet normal 0.994522 -0.104528 0
    outer loop
      vertex -21.5 3 0.5
      vertex -21.0302 7.4701 -0.5
      vertex -21.0302 7.4701 0.5
    endloop
  endfacet
  facet normal 0.994522 -0.104528 0
    outer loop
      vertex -21.0302 7.4701 -0.5
      vertex -21.5 3 0.5
      vertex -21.5 3 -0.5
    endloop
  endfacet
  facet normal 0.743146 -0.66913 0
    outer loop
      vertex -17.3939 15.6374 0.5
      vertex -16.8967 16.1896 -0.5
      vertex -16.8967 16.1896 0.5
    endloop
  endfacet
  facet normal 0.743146 -0.66913 0
    outer loop
      vertex -16.8967 16.1896 -0.5
      vertex -17.3939 15.6374 0.5
      vertex -17.3939 15.6374 -0.5
    endloop
  endfacet
  facet normal 0.743145 -0.669131 0
    outer loop
      vertex -16.2266 16.9337 0.5
      vertex -14.3863 18.9776 -0.5
      vertex -14.3863 18.9776 0.5
    endloop
  endfacet
  facet normal 0.743145 -0.669131 0
    outer loop
      vertex -14.3863 18.9776 -0.5
      vertex -16.2266 16.9337 0.5
      vertex -16.2266 16.9337 -0.5
    endloop
  endfacet
  facet normal 0.406737 -0.913545 0
    outer loop
      vertex -10.75 21.6195 -0.5
      vertex -9.69151 22.0908 0.5
      vertex -10.75 21.6195 0.5
    endloop
  endfacet
  facet normal 0.406737 -0.913545 0
    outer loop
      vertex -9.69151 22.0908 0.5
      vertex -10.75 21.6195 -0.5
      vertex -9.69151 22.0908 -0.5
    endloop
  endfacet
  facet normal 0.406737 -0.913545 0
    outer loop
      vertex -8.77765 22.4977 -0.5
      vertex -6.64386 23.4477 0.5
      vertex -8.77765 22.4977 0.5
    endloop
  endfacet
  facet normal 0.406737 -0.913545 0
    outer loop
      vertex -6.64386 23.4477 0.5
      vertex -8.77765 22.4977 -0.5
      vertex -6.64386 23.4477 -0.5
    endloop
  endfacet
  facet normal 0.587785 -0.809017 0
    outer loop
      vertex -14.3863 18.9776 -0.5
      vertex -10.75 21.6195 0.5
      vertex -14.3863 18.9776 0.5
    endloop
  endfacet
  facet normal 0.587785 -0.809017 0
    outer loop
      vertex -10.75 21.6195 0.5
      vertex -14.3863 18.9776 -0.5
      vertex -10.75 21.6195 -0.5
    endloop
  endfacet
  facet normal -0.994522 -0.104528 0
    outer loop
      vertex 21.5 3 -0.5
      vertex 21.0302 7.4701 0.5
      vertex 21.0302 7.4701 -0.5
    endloop
  endfacet
  facet normal -0.994522 -0.104528 0
    outer loop
      vertex 21.0302 7.4701 0.5
      vertex 21.5 3 -0.5
      vertex 21.5 3 0.5
    endloop
  endfacet
  facet normal -0.951057 0.309017 0
    outer loop
      vertex 19.6412 -5.74484 -0.5
      vertex 21.0302 -1.4701 0.5
      vertex 21.0302 -1.4701 -0.5
    endloop
  endfacet
  facet normal -0.951057 0.309017 0
    outer loop
      vertex 21.0302 -1.4701 0.5
      vertex 19.6412 -5.74484 -0.5
      vertex 19.6412 -5.74484 0.5
    endloop
  endfacet
  facet normal 0.587784 0.809018 -0
    outer loop
      vertex -13.98 -13.2728 -0.5
      vertex -14.3863 -12.9776 0.5
      vertex -13.98 -13.2728 0.5
    endloop
  endfacet
  facet normal 0.587784 0.809018 0
    outer loop
      vertex -14.3863 -12.9776 0.5
      vertex -13.98 -13.2728 -0.5
      vertex -14.3863 -12.9776 -0.5
    endloop
  endfacet
  facet normal 0.587785 0.809017 -0
    outer loop
      vertex -10.75 -15.6195 -0.5
      vertex -13.1609 -13.868 0.5
      vertex -10.75 -15.6195 0.5
    endloop
  endfacet
  facet normal 0.587785 0.809017 0
    outer loop
      vertex -13.1609 -13.868 0.5
      vertex -10.75 -15.6195 -0.5
      vertex -13.1609 -13.868 -0.5
    endloop
  endfacet
  facet normal 0.866025 0.500001 0
    outer loop
      vertex -18.7794 -7.2375 0.5
      vertex -19.6412 -5.74484 -0.5
      vertex -19.6412 -5.74484 0.5
    endloop
  endfacet
  facet normal 0.866025 0.500001 0
    outer loop
      vertex -19.6412 -5.74484 -0.5
      vertex -18.7794 -7.2375 0.5
      vertex -18.7794 -7.2375 -0.5
    endloop
  endfacet
  facet normal 0.866025 0.5 0
    outer loop
      vertex -17.3939 -9.63738 0.5
      vertex -18.2751 -8.111 -0.5
      vertex -18.2751 -8.111 0.5
    endloop
  endfacet
  facet normal 0.866025 0.5 0
    outer loop
      vertex -18.2751 -8.111 -0.5
      vertex -17.3939 -9.63738 0.5
      vertex -17.3939 -9.63738 -0.5
    endloop
  endfacet
  facet normal -0.587785 0.809017 0
    outer loop
      vertex 13.1609 -13.868 -0.5
      vertex 10.75 -15.6195 0.5
      vertex 13.1609 -13.868 0.5
    endloop
  endfacet
  facet normal -0.587785 0.809017 0
    outer loop
      vertex 10.75 -15.6195 0.5
      vertex 13.1609 -13.868 -0.5
      vertex 10.75 -15.6195 -0.5
    endloop
  endfacet
  facet normal -0.587784 0.809018 0
    outer loop
      vertex 14.3863 -12.9776 -0.5
      vertex 13.98 -13.2728 0.5
      vertex 14.3863 -12.9776 0.5
    endloop
  endfacet
  facet normal -0.587784 0.809018 0
    outer loop
      vertex 13.98 -13.2728 0.5
      vertex 14.3863 -12.9776 -0.5
      vertex 13.98 -13.2728 -0.5
    endloop
  endfacet
  facet normal -0.207912 -0.978148 0
    outer loop
      vertex 2.24736 24.3822 -0.5
      vertex 6.64386 23.4477 0.5
      vertex 2.24736 24.3822 0.5
    endloop
  endfacet
  facet normal -0.207912 -0.978148 -0
    outer loop
      vertex 6.64386 23.4477 0.5
      vertex 2.24736 24.3822 -0.5
      vertex 6.64386 23.4477 -0.5
    endloop
  endfacet
  facet normal 0.951056 -0.309017 0
    outer loop
      vertex -21.0302 7.4701 0.5
      vertex -20.8298 8.08679 -0.5
      vertex -20.8298 8.08679 0.5
    endloop
  endfacet
  facet normal 0.951056 -0.309017 0
    outer loop
      vertex -20.8298 8.08679 -0.5
      vertex -21.0302 7.4701 0.5
      vertex -21.0302 7.4701 -0.5
    endloop
  endfacet
  facet normal 0.951057 -0.309017 0
    outer loop
      vertex -20.5198 9.04079 0.5
      vertex -19.6412 11.7448 -0.5
      vertex -19.6412 11.7448 0.5
    endloop
  endfacet
  facet normal 0.951057 -0.309017 0
    outer loop
      vertex -19.6412 11.7448 -0.5
      vertex -20.5198 9.04079 0.5
      vertex -20.5198 9.04079 -0.5
    endloop
  endfacet
  facet normal -0.866025 0.5 0
    outer loop
      vertex 17.3939 -9.63738 -0.5
      vertex 18.2751 -8.111 0.5
      vertex 18.2751 -8.111 -0.5
    endloop
  endfacet
  facet normal -0.866025 0.5 0
    outer loop
      vertex 18.2751 -8.111 0.5
      vertex 17.3939 -9.63738 -0.5
      vertex 17.3939 -9.63738 0.5
    endloop
  endfacet
  facet normal -0.866025 0.500001 0
    outer loop
      vertex 18.7794 -7.2375 -0.5
      vertex 19.6412 -5.74484 0.5
      vertex 19.6412 -5.74484 -0.5
    endloop
  endfacet
  facet normal -0.866025 0.500001 0
    outer loop
      vertex 19.6412 -5.74484 0.5
      vertex 18.7794 -7.2375 -0.5
      vertex 18.7794 -7.2375 0.5
    endloop
  endfacet
  facet normal 0.994522 0.104528 0
    outer loop
      vertex -21.2372 0.5 0.5
      vertex -21.5 3 -0.5
      vertex -21.5 3 0.5
    endloop
  endfacet
  facet normal 0.994522 0.104528 0
    outer loop
      vertex -21.5 3 -0.5
      vertex -21.2372 0.5 0.5
      vertex -21.2372 0.5 -0.5
    endloop
  endfacet
  facet normal 0.994522 0.104528 0
    outer loop
      vertex -21.0302 -1.4701 0.5
      vertex -21.1321 -0.499999 -0.5
      vertex -21.1321 -0.499999 0.5
    endloop
  endfacet
  facet normal 0.994522 0.104528 0
    outer loop
      vertex -21.1321 -0.499999 -0.5
      vertex -21.0302 -1.4701 0.5
      vertex -21.0302 -1.4701 -0.5
    endloop
  endfacet
  facet normal 0.743145 0.66913 0
    outer loop
      vertex -14.3863 -12.9776 0.5
      vertex -17.3939 -9.63738 -0.5
      vertex -17.3939 -9.63738 0.5
    endloop
  endfacet
  facet normal 0.743145 0.66913 0
    outer loop
      vertex -17.3939 -9.63738 -0.5
      vertex -14.3863 -12.9776 0.5
      vertex -14.3863 -12.9776 -0.5
    endloop
  endfacet
  facet normal -0.207912 0.978148 0
    outer loop
      vertex 6.64386 -17.4477 -0.5
      vertex 2.24736 -18.3822 0.5
      vertex 6.64386 -17.4477 0.5
    endloop
  endfacet
  facet normal -0.207912 0.978148 0
    outer loop
      vertex 2.24736 -18.3822 0.5
      vertex 6.64386 -17.4477 -0.5
      vertex 2.24736 -18.3822 -0.5
    endloop
  endfacet
  facet normal -0.406767 0.913532 0
    outer loop
      vertex 6.67934 -17.4319 -0.5
      vertex 6.64386 -17.4477 0.5
      vertex 6.67934 -17.4319 0.5
    endloop
  endfacet
  facet normal -0.406767 0.913532 0
    outer loop
      vertex 6.64386 -17.4477 0.5
      vertex 6.67934 -17.4319 -0.5
      vertex 6.64386 -17.4477 -0.5
    endloop
  endfacet
  facet normal -0.406737 0.913545 0
    outer loop
      vertex 10.75 -15.6195 -0.5
      vertex 7.5932 -17.025 0.5
      vertex 10.75 -15.6195 0.5
    endloop
  endfacet
  facet normal -0.406737 0.913545 0
    outer loop
      vertex 7.5932 -17.025 0.5
      vertex 10.75 -15.6195 -0.5
      vertex 7.5932 -17.025 -0.5
    endloop
  endfacet
  facet normal 0.406737 0.913545 -0
    outer loop
      vertex -7.5932 -17.025 -0.5
      vertex -10.75 -15.6195 0.5
      vertex -7.5932 -17.025 0.5
    endloop
  endfacet
  facet normal 0.406737 0.913545 0
    outer loop
      vertex -10.75 -15.6195 0.5
      vertex -7.5932 -17.025 -0.5
      vertex -10.75 -15.6195 -0.5
    endloop
  endfacet
  facet normal 0.406767 0.913532 -0
    outer loop
      vertex -6.64386 -17.4477 -0.5
      vertex -6.67934 -17.4319 0.5
      vertex -6.64386 -17.4477 0.5
    endloop
  endfacet
  facet normal 0.406767 0.913532 0
    outer loop
      vertex -6.67934 -17.4319 0.5
      vertex -6.64386 -17.4477 -0.5
      vertex -6.67934 -17.4319 -0.5
    endloop
  endfacet
  facet normal 0 1 -0
    outer loop
      vertex -0.5 -18.3822 -0.5
      vertex -2.24736 -18.3822 0.5
      vertex -0.5 -18.3822 0.5
    endloop
  endfacet
  facet normal 0 1 0
    outer loop
      vertex -2.24736 -18.3822 0.5
      vertex -0.5 -18.3822 -0.5
      vertex -2.24736 -18.3822 -0.5
    endloop
  endfacet
  facet normal 0 1 -0
    outer loop
      vertex 2.24736 -18.3822 -0.5
      vertex 0.5 -18.3822 0.5
      vertex 2.24736 -18.3822 0.5
    endloop
  endfacet
  facet normal 0 1 0
    outer loop
      vertex 0.5 -18.3822 0.5
      vertex 2.24736 -18.3822 -0.5
      vertex 0.5 -18.3822 -0.5
    endloop
  endfacet
  facet normal 0.951057 0.309017 0
    outer loop
      vertex -19.6412 -5.74484 0.5
      vertex -21.0302 -1.4701 -0.5
      vertex -21.0302 -1.4701 0.5
    endloop
  endfacet
  facet normal 0.951057 0.309017 0
    outer loop
      vertex -21.0302 -1.4701 -0.5
      vertex -19.6412 -5.74484 0.5
      vertex -19.6412 -5.74484 -0.5
    endloop
  endfacet
  facet normal -0.743145 0.66913 0
    outer loop
      vertex 14.3863 -12.9776 -0.5
      vertex 17.3939 -9.63738 0.5
      vertex 17.3939 -9.63738 -0.5
    endloop
  endfacet
  facet normal -0.743145 0.66913 0
    outer loop
      vertex 17.3939 -9.63738 0.5
      vertex 14.3863 -12.9776 -0.5
      vertex 14.3863 -12.9776 0.5
    endloop
  endfacet
  facet normal 0.207912 0.978148 -0
    outer loop
      vertex -2.24736 -18.3822 -0.5
      vertex -6.64386 -17.4477 0.5
      vertex -2.24736 -18.3822 0.5
    endloop
  endfacet
  facet normal 0.207912 0.978148 0
    outer loop
      vertex -6.64386 -17.4477 0.5
      vertex -2.24736 -18.3822 -0.5
      vertex -6.64386 -17.4477 -0.5
    endloop
  endfacet
  facet normal 0.866025 0.5 0
    outer loop
      vertex 14.6167 9.50779 0.5
      vertex 13.0055 12.2984 -0.5
      vertex 13.0055 12.2984 0.5
    endloop
  endfacet
  facet normal 0.866025 0.5 0
    outer loop
      vertex 13.0055 12.2984 -0.5
      vertex 14.6167 9.50779 0.5
      vertex 14.6167 9.50779 -0.5
    endloop
  endfacet
  facet normal 0 1 -0
    outer loop
      vertex -0.5 18.9123 -0.5
      vertex -1.67245 18.9123 0.5
      vertex -0.5 18.9123 0.5
    endloop
  endfacet
  facet normal 0 1 0
    outer loop
      vertex -1.67245 18.9123 0.5
      vertex -0.5 18.9123 -0.5
      vertex -1.67245 18.9123 -0.5
    endloop
  endfacet
  facet normal 0 1 -0
    outer loop
      vertex 1.67245 18.9123 -0.5
      vertex 0.5 18.9123 0.5
      vertex 1.67245 18.9123 0.5
    endloop
  endfacet
  facet normal 0 1 0
    outer loop
      vertex 0.5 18.9123 0.5
      vertex 1.67245 18.9123 -0.5
      vertex 0.5 18.9123 -0.5
    endloop
  endfacet
  facet normal 0.743145 0.66913 0
    outer loop
      vertex 12.3535 13.0606 0.5
      vertex 10.7061 14.8903 -0.5
      vertex 10.7061 14.8903 0.5
    endloop
  endfacet
  facet normal 0.743145 0.66913 0
    outer loop
      vertex 10.7061 14.8903 -0.5
      vertex 12.3535 13.0606 0.5
      vertex 12.3535 13.0606 -0.5
    endloop
  endfacet
  facet normal 0.207912 0.978148 -0
    outer loop
      vertex 4.94427 18.2169 -0.5
      vertex 1.67245 18.9123 0.5
      vertex 4.94427 18.2169 0.5
    endloop
  endfacet
  facet normal 0.207912 0.978148 0
    outer loop
      vertex 1.67245 18.9123 0.5
      vertex 4.94427 18.2169 -0.5
      vertex 1.67245 18.9123 -0.5
    endloop
  endfacet
  facet normal -0.406735 0.913546 0
    outer loop
      vertex -7.59756 17.0356 -0.5
      vertex -8 16.8564 0.5
      vertex -7.59756 17.0356 0.5
    endloop
  endfacet
  facet normal -0.406735 0.913546 0
    outer loop
      vertex -8 16.8564 0.5
      vertex -7.59756 17.0356 -0.5
      vertex -8 16.8564 -0.5
    endloop
  endfacet
  facet normal -0.406737 0.913545 0
    outer loop
      vertex -4.94427 18.2169 -0.5
      vertex -6.68371 17.4425 0.5
      vertex -4.94427 18.2169 0.5
    endloop
  endfacet
  facet normal -0.406737 0.913545 0
    outer loop
      vertex -6.68371 17.4425 0.5
      vertex -4.94427 18.2169 -0.5
      vertex -6.68371 17.4425 -0.5
    endloop
  endfacet
  facet normal -0.866025 0.5 0
    outer loop
      vertex -14.6167 9.50779 -0.5
      vertex -13.0055 12.2984 0.5
      vertex -13.0055 12.2984 -0.5
    endloop
  endfacet
  facet normal -0.866025 0.5 0
    outer loop
      vertex -13.0055 12.2984 0.5
      vertex -14.6167 9.50779 -0.5
      vertex -14.6167 9.50779 0.5
    endloop
  endfacet
  facet normal -0.587785 0.809017 0
    outer loop
      vertex -8 16.8564 -0.5
      vertex -10.7061 14.8903 0.5
      vertex -8 16.8564 0.5
    endloop
  endfacet
  facet normal -0.587785 0.809017 0
    outer loop
      vertex -10.7061 14.8903 0.5
      vertex -8 16.8564 -0.5
      vertex -10.7061 14.8903 -0.5
    endloop
  endfacet
  facet normal 0.994522 -0.104529 0
    outer loop
      vertex 15.7372 0.499999 0.5
      vertex 16 3 -0.5
      vertex 16 3 0.5
    endloop
  endfacet
  facet normal 0.994522 -0.104529 0
    outer loop
      vertex 16 3 -0.5
      vertex 15.7372 0.499999 0.5
      vertex 15.7372 0.499999 -0.5
    endloop
  endfacet
  facet normal 0.207912 -0.978148 0
    outer loop
      vertex 1.67245 -12.9123 -0.5
      vertex 4.55361 -12.2999 0.5
      vertex 1.67245 -12.9123 0.5
    endloop
  endfacet
  facet normal 0.207912 -0.978148 0
    outer loop
      vertex 4.55361 -12.2999 0.5
      vertex 1.67245 -12.9123 -0.5
      vertex 4.55361 -12.2999 -0.5
    endloop
  endfacet
  facet normal 0.951056 0.309017 0
    outer loop
      vertex 15.4507 6.94108 0.5
      vertex 14.6167 9.50779 -0.5
      vertex 14.6167 9.50779 0.5
    endloop
  endfacet
  facet normal 0.951056 0.309017 0
    outer loop
      vertex 14.6167 9.50779 -0.5
      vertex 15.4507 6.94108 0.5
      vertex 15.4507 6.94108 -0.5
    endloop
  endfacet
  facet normal 0.587786 0.809017 -0
    outer loop
      vertex 10.7061 14.8903 -0.5
      vertex 8 16.8564 0.5
      vertex 10.7061 14.8903 0.5
    endloop
  endfacet
  facet normal 0.587786 0.809017 0
    outer loop
      vertex 8 16.8564 0.5
      vertex 10.7061 14.8903 -0.5
      vertex 8 16.8564 -0.5
    endloop
  endfacet
  facet normal 0.406737 0.913545 -0
    outer loop
      vertex 6.68371 17.4425 -0.5
      vertex 4.94427 18.2169 0.5
      vertex 6.68371 17.4425 0.5
    endloop
  endfacet
  facet normal 0.406737 0.913545 0
    outer loop
      vertex 4.94427 18.2169 0.5
      vertex 6.68371 17.4425 -0.5
      vertex 4.94427 18.2169 -0.5
    endloop
  endfacet
  facet normal 0.406735 0.913546 -0
    outer loop
      vertex 8 16.8564 -0.5
      vertex 7.59757 17.0356 0.5
      vertex 8 16.8564 0.5
    endloop
  endfacet
  facet normal 0.406735 0.913546 0
    outer loop
      vertex 7.59757 17.0356 0.5
      vertex 8 16.8564 -0.5
      vertex 7.59757 17.0356 -0.5
    endloop
  endfacet
  facet normal -0.994522 0.104529 0
    outer loop
      vertex -16 3 -0.5
      vertex -15.6892 5.95747 0.5
      vertex -15.6892 5.95747 -0.5
    endloop
  endfacet
  facet normal -0.994522 0.104529 0
    outer loop
      vertex -15.6892 5.95747 0.5
      vertex -16 3 -0.5
      vertex -16 3 0.5
    endloop
  endfacet
  facet normal -0.743145 0.66913 0
    outer loop
      vertex -12.3535 13.0606 -0.5
      vertex -10.7061 14.8903 0.5
      vertex -10.7061 14.8903 -0.5
    endloop
  endfacet
  facet normal -0.743145 0.66913 0
    outer loop
      vertex -10.7061 14.8903 0.5
      vertex -12.3535 13.0606 -0.5
      vertex -12.3535 13.0606 0.5
    endloop
  endfacet
  facet normal -0.207912 0.978148 0
    outer loop
      vertex -1.67245 18.9123 -0.5
      vertex -4.94427 18.2169 0.5
      vertex -1.67245 18.9123 0.5
    endloop
  endfacet
  facet normal -0.207912 0.978148 0
    outer loop
      vertex -4.94427 18.2169 0.5
      vertex -1.67245 18.9123 -0.5
      vertex -4.94427 18.2169 -0.5
    endloop
  endfacet
  facet normal 0.994522 0.104529 0
    outer loop
      vertex 16 3 0.5
      vertex 15.6892 5.95747 -0.5
      vertex 15.6892 5.95747 0.5
    endloop
  endfacet
  facet normal 0.994522 0.104529 0
    outer loop
      vertex 15.6892 5.95747 -0.5
      vertex 16 3 0.5
      vertex 16 3 -0.5
    endloop
  endfacet
  facet normal 0.951056 -0.309017 0
    outer loop
      vertex 14.6167 -3.50779 0.5
      vertex 15.594 -0.5 -0.5
      vertex 15.594 -0.5 0.5
    endloop
  endfacet
  facet normal 0.951056 -0.309017 0
    outer loop
      vertex 15.594 -0.5 -0.5
      vertex 14.6167 -3.50779 0.5
      vertex 14.6167 -3.50779 -0.5
    endloop
  endfacet
  facet normal -0.587785 -0.809017 0
    outer loop
      vertex -10.7061 -8.89032 -0.5
      vertex -10.064 -9.35685 0.5
      vertex -10.7061 -8.89032 0.5
    endloop
  endfacet
  facet normal -0.587785 -0.809017 -0
    outer loop
      vertex -10.064 -9.35685 0.5
      vertex -10.7061 -8.89032 -0.5
      vertex -10.064 -9.35685 -0.5
    endloop
  endfacet
  facet normal -0.587785 -0.809017 0
    outer loop
      vertex -9.24486 -9.95196 -0.5
      vertex -8 -10.8564 0.5
      vertex -9.24486 -9.95196 0.5
    endloop
  endfacet
  facet normal -0.587785 -0.809017 -0
    outer loop
      vertex -8 -10.8564 0.5
      vertex -9.24486 -9.95196 -0.5
      vertex -8 -10.8564 -0.5
    endloop
  endfacet
  facet normal -0.866025 -0.5 0
    outer loop
      vertex -13.6823 -5.12621 -0.5
      vertex -14.6167 -3.50779 0.5
      vertex -14.6167 -3.50779 -0.5
    endloop
  endfacet
  facet normal -0.866025 -0.5 0
    outer loop
      vertex -14.6167 -3.50779 0.5
      vertex -13.6823 -5.12621 -0.5
      vertex -13.6823 -5.12621 0.5
    endloop
  endfacet
  facet normal -0.866025 -0.5 0
    outer loop
      vertex -12.9443 -6.40456 -0.5
      vertex -13.178 -5.99971 0.5
      vertex -13.178 -5.99971 -0.5
    endloop
  endfacet
  facet normal -0.866025 -0.5 0
    outer loop
      vertex -13.178 -5.99971 0.5
      vertex -12.9443 -6.40456 -0.5
      vertex -12.9443 -6.40456 0.5
    endloop
  endfacet
  facet normal 0.587785 -0.809017 0
    outer loop
      vertex 8 -10.8564 -0.5
      vertex 9.24486 -9.95196 0.5
      vertex 8 -10.8564 0.5
    endloop
  endfacet
  facet normal 0.587785 -0.809017 0
    outer loop
      vertex 9.24486 -9.95196 0.5
      vertex 8 -10.8564 -0.5
      vertex 9.24486 -9.95196 -0.5
    endloop
  endfacet
  facet normal 0.587785 -0.809017 0
    outer loop
      vertex 10.064 -9.35685 -0.5
      vertex 10.7061 -8.89032 0.5
      vertex 10.064 -9.35685 0.5
    endloop
  endfacet
  facet normal 0.587785 -0.809017 0
    outer loop
      vertex 10.7061 -8.89032 0.5
      vertex 10.064 -9.35685 -0.5
      vertex 10.7061 -8.89032 -0.5
    endloop
  endfacet
  facet normal -0.951056 0.309017 0
    outer loop
      vertex -15.4507 6.94108 -0.5
      vertex -14.6167 9.50779 0.5
      vertex -14.6167 9.50779 -0.5
    endloop
  endfacet
  facet normal -0.951056 0.309017 0
    outer loop
      vertex -14.6167 9.50779 0.5
      vertex -15.4507 6.94108 -0.5
      vertex -15.4507 6.94108 0.5
    endloop
  endfacet
  facet normal 0.866025 -0.5 0
    outer loop
      vertex 12.9443 -6.40456 0.5
      vertex 13.178 -5.99971 -0.5
      vertex 13.178 -5.99971 0.5
    endloop
  endfacet
  facet normal 0.866025 -0.5 0
    outer loop
      vertex 13.178 -5.99971 -0.5
      vertex 12.9443 -6.40456 0.5
      vertex 12.9443 -6.40456 -0.5
    endloop
  endfacet
  facet normal 0.866025 -0.5 0
    outer loop
      vertex 13.6823 -5.12621 0.5
      vertex 14.6167 -3.50779 -0.5
      vertex 14.6167 -3.50779 0.5
    endloop
  endfacet
  facet normal 0.866025 -0.5 0
    outer loop
      vertex 14.6167 -3.50779 -0.5
      vertex 13.6823 -5.12621 0.5
      vertex 13.6823 -5.12621 -0.5
    endloop
  endfacet
  facet normal -0.994522 -0.104529 0
    outer loop
      vertex -15.7372 0.5 -0.5
      vertex -16 3 0.5
      vertex -16 3 -0.5
    endloop
  endfacet
  facet normal -0.994522 -0.104529 0
    outer loop
      vertex -16 3 0.5
      vertex -15.7372 0.5 -0.5
      vertex -15.7372 0.5 0.5
    endloop
  endfacet
  facet normal -0.743145 -0.669131 0
    outer loop
      vertex -10.7061 -8.89032 -0.5
      vertex -12.9443 -6.40456 0.5
      vertex -12.9443 -6.40456 -0.5
    endloop
  endfacet
  facet normal -0.743145 -0.669131 0
    outer loop
      vertex -12.9443 -6.40456 0.5
      vertex -10.7061 -8.89032 -0.5
      vertex -10.7061 -8.89032 0.5
    endloop
  endfacet
  facet normal 0.406736 -0.913546 0
    outer loop
      vertex 5.49925 -11.9698 -0.5
      vertex 8 -10.8564 0.5
      vertex 5.49925 -11.9698 0.5
    endloop
  endfacet
  facet normal 0.406736 -0.913546 0
    outer loop
      vertex 8 -10.8564 0.5
      vertex 5.49925 -11.9698 -0.5
      vertex 8 -10.8564 -0.5
    endloop
  endfacet
  facet normal -0.406736 -0.913546 0
    outer loop
      vertex -8 -10.8564 -0.5
      vertex -5.49925 -11.9698 0.5
      vertex -8 -10.8564 0.5
    endloop
  endfacet
  facet normal -0.406736 -0.913546 -0
    outer loop
      vertex -5.49925 -11.9698 0.5
      vertex -8 -10.8564 -0.5
      vertex -5.49925 -11.9698 -0.5
    endloop
  endfacet
  facet normal 0 -1 0
    outer loop
      vertex -1.67245 -12.9123 -0.5
      vertex -0.5 -12.9123 0.5
      vertex -1.67245 -12.9123 0.5
    endloop
  endfacet
  facet normal 0 -1 -0
    outer loop
      vertex -0.5 -12.9123 0.5
      vertex -1.67245 -12.9123 -0.5
      vertex -0.5 -12.9123 -0.5
    endloop
  endfacet
  facet normal 0 -1 0
    outer loop
      vertex 0.5 -12.9123 -0.5
      vertex 1.67245 -12.9123 0.5
      vertex 0.5 -12.9123 0.5
    endloop
  endfacet
  facet normal 0 -1 -0
    outer loop
      vertex 1.67245 -12.9123 0.5
      vertex 0.5 -12.9123 -0.5
      vertex 1.67245 -12.9123 -0.5
    endloop
  endfacet
  facet normal -0.951057 -0.309017 0
    outer loop
      vertex -14.6167 -3.50779 -0.5
      vertex -15.594 -0.499999 0.5
      vertex -15.594 -0.499999 -0.5
    endloop
  endfacet
  facet normal -0.951057 -0.309017 0
    outer loop
      vertex -15.594 -0.499999 0.5
      vertex -14.6167 -3.50779 -0.5
      vertex -14.6167 -3.50779 0.5
    endloop
  endfacet
  facet normal 0.743145 -0.669131 0
    outer loop
      vertex 10.7061 -8.89032 0.5
      vertex 12.9443 -6.40456 -0.5
      vertex 12.9443 -6.40456 0.5
    endloop
  endfacet
  facet normal 0.743145 -0.669131 0
    outer loop
      vertex 12.9443 -6.40456 -0.5
      vertex 10.7061 -8.89032 0.5
      vertex 10.7061 -8.89032 -0.5
    endloop
  endfacet
  facet normal -0.207912 -0.978148 0
    outer loop
      vertex -4.55361 -12.2999 -0.5
      vertex -1.67245 -12.9123 0.5
      vertex -4.55361 -12.2999 0.5
    endloop
  endfacet
  facet normal -0.207912 -0.978148 -0
    outer loop
      vertex -1.67245 -12.9123 0.5
      vertex -4.55361 -12.2999 -0.5
      vertex -1.67245 -12.9123 -0.5
    endloop
  endfacet
  facet normal -1 0 0
    outer loop
      vertex -23.5 -27.5 -0.5
      vertex -23.5 27.5 0.5
      vertex -23.5 27.5 -0.5
    endloop
  endfacet
  facet normal -1 -0 0
    outer loop
      vertex -23.5 27.5 0.5
      vertex -23.5 -27.5 -0.5
      vertex -23.5 -27.5 0.5
    endloop
  endfacet
  facet normal 0 0 1
    outer loop
      vertex -15.6892 5.95747 0.5
      vertex -16 3 0.5
      vertex -15.7372 0.5 0.5
    endloop
  endfacet
  facet normal 0 0 1
    outer loop
      vertex -13.6823 -5.12621 0.5
      vertex -18.2751 -8.111 0.5
      vertex -13.178 -5.99971 0.5
    endloop
  endfacet
  facet normal 0 -0 1
    outer loop
      vertex -18.2751 -8.111 0.5
      vertex -13.6823 -5.12621 0.5
      vertex -18.7794 -7.2375 0.5
    endloop
  endfacet
  facet normal 0 0 1
    outer loop
      vertex -13.6823 -5.12621 0.5
      vertex -15.7372 0.5 0.5
      vertex -15.594 -0.499999 0.5
    endloop
  endfacet
  facet normal 0 0 1
    outer loop
      vertex -15.7372 0.5 0.5
      vertex -21.1321 -0.499999 0.5
      vertex -15.594 -0.499999 0.5
    endloop
  endfacet
  facet normal 0 -0 1
    outer loop
      vertex -21.1321 -0.499999 0.5
      vertex -15.7372 0.5 0.5
      vertex -21.2372 0.5 0.5
    endloop
  endfacet
  facet normal -0 0 1
    outer loop
      vertex -9.69151 22.0908 0.5
      vertex -6.68371 17.4425 0.5
      vertex -8.77765 22.4977 0.5
    endloop
  endfacet
  facet normal 0 0 1
    outer loop
      vertex -6.68371 17.4425 0.5
      vertex -9.69151 22.0908 0.5
      vertex -7.59756 17.0356 0.5
    endloop
  endfacet
  facet normal 0 0 1
    outer loop
      vertex -10.064 -9.35685 0.5
      vertex -13.1609 -13.868 0.5
      vertex -9.24486 -9.95196 0.5
    endloop
  endfacet
  facet normal 0 -0 1
    outer loop
      vertex -13.1609 -13.868 0.5
      vertex -10.064 -9.35685 0.5
      vertex -13.98 -13.2728 0.5
    endloop
  endfacet
  facet normal 0 0 1
    outer loop
      vertex -10.7061 -8.89032 0.5
      vertex -13.178 -5.99971 0.5
      vertex -12.9443 -6.40456 0.5
    endloop
  endfacet
  facet normal 0 0 1
    outer loop
      vertex -12.3535 13.0606 0.5
      vertex -13.6823 -5.12621 0.5
      vertex -13.178 -5.99971 0.5
    endloop
  endfacet
  facet normal 0 0 1
    outer loop
      vertex -12.3535 13.0606 0.5
      vertex -14.6167 9.50779 0.5
      vertex -15.4507 6.94108 0.5
    endloop
  endfacet
  facet normal 0 0 1
    outer loop
      vertex -12.3535 13.0606 0.5
      vertex -15.4507 6.94108 0.5
      vertex -13.6823 -5.12621 0.5
    endloop
  endfacet
  facet normal -0 0 1
    outer loop
      vertex -15.7372 0.5 0.5
      vertex -13.6823 -5.12621 0.5
      vertex -15.4507 6.94108 0.5
    endloop
  endfacet
  facet normal 0 0 1
    outer loop
      vertex -13.6823 -5.12621 0.5
      vertex -15.594 -0.499999 0.5
      vertex -14.6167 -3.50779 0.5
    endloop
  endfacet
  facet normal 0 0 1
    outer loop
      vertex -15.7372 0.5 0.5
      vertex -15.4507 6.94108 0.5
      vertex -15.6892 5.95747 0.5
    endloop
  endfacet
  facet normal -0 0 1
    outer loop
      vertex -20.8298 8.08679 0.5
      vertex -15.4507 6.94108 0.5
      vertex -20.5198 9.04079 0.5
    endloop
  endfacet
  facet normal 0 0 1
    outer loop
      vertex -15.4507 6.94108 0.5
      vertex -20.8298 8.08679 0.5
      vertex -15.6892 5.95747 0.5
    endloop
  endfacet
  facet normal 0 0 1
    outer loop
      vertex -0.5 18.9123 0.5
      vertex -6.68371 17.4425 0.5
      vertex -5.49925 -11.9698 0.5
    endloop
  endfacet
  facet normal 0 0 1
    outer loop
      vertex -12.3535 13.0606 0.5
      vertex -6.68371 17.4425 0.5
      vertex -7.59756 17.0356 0.5
    endloop
  endfacet
  facet normal 0 0 1
    outer loop
      vertex -10.7061 14.8903 0.5
      vertex -7.59756 17.0356 0.5
      vertex -8 16.8564 0.5
    endloop
  endfacet
  facet normal 0 0 1
    outer loop
      vertex -6.68371 17.4425 0.5
      vertex -9.24486 -9.95196 0.5
      vertex -5.49925 -11.9698 0.5
    endloop
  endfacet
  facet normal 0 0 1
    outer loop
      vertex -5.49925 -11.9698 0.5
      vertex -9.24486 -9.95196 0.5
      vertex -8 -10.8564 0.5
    endloop
  endfacet
  facet normal 0 0 1
    outer loop
      vertex -6.68371 17.4425 0.5
      vertex -12.3535 13.0606 0.5
      vertex -9.24486 -9.95196 0.5
    endloop
  endfacet
  facet normal 0 0 1
    outer loop
      vertex -7.59756 17.0356 0.5
      vertex -10.7061 14.8903 0.5
      vertex -12.3535 13.0606 0.5
    endloop
  endfacet
  facet normal -0 0 1
    outer loop
      vertex -13.178 -5.99971 0.5
      vertex -9.24486 -9.95196 0.5
      vertex -12.3535 13.0606 0.5
    endloop
  endfacet
  facet normal 0 0 1
    outer loop
      vertex -9.24486 -9.95196 0.5
      vertex -13.178 -5.99971 0.5
      vertex -10.064 -9.35685 0.5
    endloop
  endfacet
  facet normal 0 0 1
    outer loop
      vertex -13.178 -5.99971 0.5
      vertex -10.7061 -8.89032 0.5
      vertex -10.064 -9.35685 0.5
    endloop
  endfacet
  facet normal 0 0 1
    outer loop
      vertex -14.6167 9.50779 0.5
      vertex -12.3535 13.0606 0.5
      vertex -13.0055 12.2984 0.5
    endloop
  endfacet
  facet normal -0 0 1
    outer loop
      vertex -16.8967 16.1896 0.5
      vertex -12.3535 13.0606 0.5
      vertex -16.2266 16.9337 0.5
    endloop
  endfacet
  facet normal 0 0 1
    outer loop
      vertex -12.3535 13.0606 0.5
      vertex -16.8967 16.1896 0.5
      vertex -13.0055 12.2984 0.5
    endloop
  endfacet
  facet normal 0 0 1
    outer loop
      vertex -4.94427 18.2169 0.5
      vertex -0.5 18.9123 0.5
      vertex -1.67245 18.9123 0.5
    endloop
  endfacet
  facet normal 0 0 1
    outer loop
      vertex -0.5 18.9123 0.5
      vertex -5.49925 -11.9698 0.5
      vertex -0.5 -12.9123 0.5
    endloop
  endfacet
  facet normal 0 0 1
    outer loop
      vertex -0.5 -12.9123 0.5
      vertex -4.55361 -12.2999 0.5
      vertex -1.67245 -12.9123 0.5
    endloop
  endfacet
  facet normal 0 0 1
    outer loop
      vertex -6.68371 17.4425 0.5
      vertex -0.5 18.9123 0.5
      vertex -4.94427 18.2169 0.5
    endloop
  endfacet
  facet normal 0 0 1
    outer loop
      vertex -0.5 -12.9123 0.5
      vertex -5.49925 -11.9698 0.5
      vertex -4.55361 -12.2999 0.5
    endloop
  endfacet
  facet normal 0 0 1
    outer loop
      vertex -5.49925 -11.9698 0.5
      vertex -6.67934 -17.4319 0.5
      vertex -4.55361 -12.2999 0.5
    endloop
  endfacet
  facet normal 0 -0 1
    outer loop
      vertex -6.67934 -17.4319 0.5
      vertex -5.49925 -11.9698 0.5
      vertex -7.5932 -17.025 0.5
    endloop
  endfacet
  facet normal 0 0 1
    outer loop
      vertex 5.49925 -11.9698 0.5
      vertex 6.67934 -17.4319 0.5
      vertex 7.5932 -17.025 0.5
    endloop
  endfacet
  facet normal 0 0 1
    outer loop
      vertex 5.49925 -11.9698 0.5
      vertex 4.55361 -12.2999 0.5
      vertex 6.67934 -17.4319 0.5
    endloop
  endfacet
  facet normal 0 0 1
    outer loop
      vertex 6.68371 17.4425 0.5
      vertex 4.55361 -12.2999 0.5
      vertex 5.49925 -11.9698 0.5
    endloop
  endfacet
  facet normal -0 0 1
    outer loop
      vertex 0.5 18.9123 0.5
      vertex 4.94427 18.2169 0.5
      vertex 1.67245 18.9123 0.5
    endloop
  endfacet
  facet normal 0 0 1
    outer loop
      vertex 0.5 -12.9123 0.5
      vertex 6.68371 17.4425 0.5
      vertex 0.5 18.9123 0.5
    endloop
  endfacet
  facet normal 0 0 1
    outer loop
      vertex 6.68371 17.4425 0.5
      vertex 0.5 -12.9123 0.5
      vertex 4.55361 -12.2999 0.5
    endloop
  endfacet
  facet normal 0 0 1
    outer loop
      vertex 4.55361 -12.2999 0.5
      vertex 0.5 -12.9123 0.5
      vertex 1.67245 -12.9123 0.5
    endloop
  endfacet
  facet normal 0 0 1
    outer loop
      vertex 10.064 -9.35685 0.5
      vertex 13.1609 -13.868 0.5
      vertex 13.98 -13.2728 0.5
    endloop
  endfacet
  facet normal 0 0 1
    outer loop
      vertex 13.1609 -13.868 0.5
      vertex 10.064 -9.35685 0.5
      vertex 9.24486 -9.95196 0.5
    endloop
  endfacet
  facet normal 0 0 1
    outer loop
      vertex 6.68371 17.4425 0.5
      vertex 9.69151 22.0908 0.5
      vertex 8.77765 22.4977 0.5
    endloop
  endfacet
  facet normal 0 0 1
    outer loop
      vertex 9.69151 22.0908 0.5
      vertex 6.68371 17.4425 0.5
      vertex 7.59757 17.0356 0.5
    endloop
  endfacet
  facet normal 0 0 1
    outer loop
      vertex 16 3 0.5
      vertex 15.6892 5.95747 0.5
      vertex 15.7372 0.499999 0.5
    endloop
  endfacet
  facet normal 0 0 1
    outer loop
      vertex 13.6823 -5.12621 0.5
      vertex 18.2751 -8.111 0.5
      vertex 18.7794 -7.2375 0.5
    endloop
  endfacet
  facet normal 0 0 1
    outer loop
      vertex 18.2751 -8.111 0.5
      vertex 13.6823 -5.12621 0.5
      vertex 13.178 -5.99971 0.5
    endloop
  endfacet
  facet normal 0 0 1
    outer loop
      vertex 15.7372 0.499999 0.5
      vertex 21.1321 -0.5 0.5
      vertex 21.2372 0.499999 0.5
    endloop
  endfacet
  facet normal 0 0 1
    outer loop
      vertex 15.7372 0.499999 0.5
      vertex 15.594 -0.5 0.5
      vertex 21.1321 -0.5 0.5
    endloop
  endfacet
  facet normal 0 0 1
    outer loop
      vertex 15.4507 6.94108 0.5
      vertex 15.7372 0.499999 0.5
      vertex 15.6892 5.95747 0.5
    endloop
  endfacet
  facet normal 0 0 1
    outer loop
      vertex 23.5 27.5 0.5
      vertex 21.5 3 0.5
      vertex 23.5 -27.5 0.5
    endloop
  endfacet
  facet normal 0 0 1
    outer loop
      vertex 23.5 27.5 0.5
      vertex 21.0302 7.4701 0.5
      vertex 21.5 3 0.5
    endloop
  endfacet
  facet normal 0 0 1
    outer loop
      vertex 23.5 27.5 0.5
      vertex 20.8298 8.08679 0.5
      vertex 21.0302 7.4701 0.5
    endloop
  endfacet
  facet normal 0 0 1
    outer loop
      vertex 23.5 27.5 0.5
      vertex 20.5198 9.04079 0.5
      vertex 20.8298 8.08679 0.5
    endloop
  endfacet
  facet normal 0 0 1
    outer loop
      vertex 23.5 27.5 0.5
      vertex 19.6412 11.7448 0.5
      vertex 20.5198 9.04079 0.5
    endloop
  endfacet
  facet normal 0 0 1
    outer loop
      vertex 23.5 27.5 0.5
      vertex 17.3939 15.6374 0.5
      vertex 19.6412 11.7448 0.5
    endloop
  endfacet
  facet normal 0 0 1
    outer loop
      vertex 23.5 27.5 0.5
      vertex 16.8967 16.1896 0.5
      vertex 17.3939 15.6374 0.5
    endloop
  endfacet
  facet normal 0 0 1
    outer loop
      vertex 23.5 27.5 0.5
      vertex 16.2266 16.9337 0.5
      vertex 16.8967 16.1896 0.5
    endloop
  endfacet
  facet normal 0 0 1
    outer loop
      vertex 23.5 27.5 0.5
      vertex 14.3863 18.9776 0.5
      vertex 16.2266 16.9337 0.5
    endloop
  endfacet
  facet normal 0 0 1
    outer loop
      vertex 23.5 27.5 0.5
      vertex 10.75 21.6195 0.5
      vertex 14.3863 18.9776 0.5
    endloop
  endfacet
  facet normal 0 0 1
    outer loop
      vertex 23.5 27.5 0.5
      vertex 9.69151 22.0908 0.5
      vertex 10.75 21.6195 0.5
    endloop
  endfacet
  facet normal 0 0 1
    outer loop
      vertex 23.5 27.5 0.5
      vertex 8.77765 22.4977 0.5
      vertex 9.69151 22.0908 0.5
    endloop
  endfacet
  facet normal 0 0 1
    outer loop
      vertex 23.5 27.5 0.5
      vertex 6.64386 23.4477 0.5
      vertex 8.77765 22.4977 0.5
    endloop
  endfacet
  facet normal 0 0 1
    outer loop
      vertex 23.5 27.5 0.5
      vertex 2.24736 24.3822 0.5
      vertex 6.64386 23.4477 0.5
    endloop
  endfacet
  facet normal 0 0 1
    outer loop
      vertex 23.5 27.5 0.5
      vertex 0.5 24.3822 0.5
      vertex 2.24736 24.3822 0.5
    endloop
  endfacet
  facet normal 0 0 1
    outer loop
      vertex -0.5 18.9123 0.5
      vertex 0.5 18.9123 0.5
      vertex 0.5 24.3822 0.5
    endloop
  endfacet
  facet normal 0 0 1
    outer loop
      vertex 0.5 18.9123 0.5
      vertex -0.5 18.9123 0.5
      vertex 0.5 -12.9123 0.5
    endloop
  endfacet
  facet normal 0 0 1
    outer loop
      vertex -0.5 18.9123 0.5
      vertex 0.5 24.3822 0.5
      vertex -0.5 24.3822 0.5
    endloop
  endfacet
  facet normal 0 0 1
    outer loop
      vertex 23.5 27.5 0.5
      vertex -0.5 24.3822 0.5
      vertex 0.5 24.3822 0.5
    endloop
  endfacet
  facet normal -0 0 1
    outer loop
      vertex -23.5 27.5 0.5
      vertex -0.5 24.3822 0.5
      vertex 23.5 27.5 0.5
    endloop
  endfacet
  facet normal 0 0 1
    outer loop
      vertex -23.5 27.5 0.5
      vertex -8.77765 22.4977 0.5
      vertex -6.64386 23.4477 0.5
    endloop
  endfacet
  facet normal 0 0 1
    outer loop
      vertex -8.77765 22.4977 0.5
      vertex -23.5 27.5 0.5
      vertex -9.69151 22.0908 0.5
    endloop
  endfacet
  facet normal 0 0 1
    outer loop
      vertex -23.5 27.5 0.5
      vertex -16.2266 16.9337 0.5
      vertex -14.3863 18.9776 0.5
    endloop
  endfacet
  facet normal 0 0 1
    outer loop
      vertex -23.5 27.5 0.5
      vertex -20.5198 9.04079 0.5
      vertex -19.6412 11.7448 0.5
    endloop
  endfacet
  facet normal 0 0 1
    outer loop
      vertex -20.5198 9.04079 0.5
      vertex -23.5 27.5 0.5
      vertex -20.8298 8.08679 0.5
    endloop
  endfacet
  facet normal 0 0 1
    outer loop
      vertex -21.0302 7.4701 0.5
      vertex -23.5 27.5 0.5
      vertex -21.5 3 0.5
    endloop
  endfacet
  facet normal 0 0 1
    outer loop
      vertex -20.8298 8.08679 0.5
      vertex -23.5 27.5 0.5
      vertex -21.0302 7.4701 0.5
    endloop
  endfacet
  facet normal 0 0 1
    outer loop
      vertex -17.3939 15.6374 0.5
      vertex -23.5 27.5 0.5
      vertex -19.6412 11.7448 0.5
    endloop
  endfacet
  facet normal 0 0 1
    outer loop
      vertex -16.8967 16.1896 0.5
      vertex -23.5 27.5 0.5
      vertex -17.3939 15.6374 0.5
    endloop
  endfacet
  facet normal 0 0 1
    outer loop
      vertex -16.2266 16.9337 0.5
      vertex -23.5 27.5 0.5
      vertex -16.8967 16.1896 0.5
    endloop
  endfacet
  facet normal 0 0 1
    outer loop
      vertex -10.75 21.6195 0.5
      vertex -23.5 27.5 0.5
      vertex -14.3863 18.9776 0.5
    endloop
  endfacet
  facet normal 0 0 1
    outer loop
      vertex -9.69151 22.0908 0.5
      vertex -23.5 27.5 0.5
      vertex -10.75 21.6195 0.5
    endloop
  endfacet
  facet normal 0 0 1
    outer loop
      vertex -2.24736 24.3822 0.5
      vertex -23.5 27.5 0.5
      vertex -6.64386 23.4477 0.5
    endloop
  endfacet
  facet normal 0 0 1
    outer loop
      vertex -0.5 24.3822 0.5
      vertex -23.5 27.5 0.5
      vertex -2.24736 24.3822 0.5
    endloop
  endfacet
  facet normal -0 0 1
    outer loop
      vertex 21.2372 0.499999 0.5
      vertex 23.5 -27.5 0.5
      vertex 21.5 3 0.5
    endloop
  endfacet
  facet normal -0 0 1
    outer loop
      vertex 21.1321 -0.5 0.5
      vertex 23.5 -27.5 0.5
      vertex 21.2372 0.499999 0.5
    endloop
  endfacet
  facet normal -0 0 1
    outer loop
      vertex 21.0302 -1.4701 0.5
      vertex 23.5 -27.5 0.5
      vertex 21.1321 -0.5 0.5
    endloop
  endfacet
  facet normal -0 0 1
    outer loop
      vertex 19.6412 -5.74484 0.5
      vertex 23.5 -27.5 0.5
      vertex 21.0302 -1.4701 0.5
    endloop
  endfacet
  facet normal -0 0 1
    outer loop
      vertex 18.7794 -7.2375 0.5
      vertex 23.5 -27.5 0.5
      vertex 19.6412 -5.74484 0.5
    endloop
  endfacet
  facet normal -0 0 1
    outer loop
      vertex 18.2751 -8.111 0.5
      vertex 23.5 -27.5 0.5
      vertex 18.7794 -7.2375 0.5
    endloop
  endfacet
  facet normal -0 0 1
    outer loop
      vertex 17.3939 -9.63738 0.5
      vertex 23.5 -27.5 0.5
      vertex 18.2751 -8.111 0.5
    endloop
  endfacet
  facet normal -0 0 1
    outer loop
      vertex 14.3863 -12.9776 0.5
      vertex 23.5 -27.5 0.5
      vertex 17.3939 -9.63738 0.5
    endloop
  endfacet
  facet normal -0 0 1
    outer loop
      vertex 13.98 -13.2728 0.5
      vertex 23.5 -27.5 0.5
      vertex 14.3863 -12.9776 0.5
    endloop
  endfacet
  facet normal -0 0 1
    outer loop
      vertex 13.1609 -13.868 0.5
      vertex 23.5 -27.5 0.5
      vertex 13.98 -13.2728 0.5
    endloop
  endfacet
  facet normal -0 0 1
    outer loop
      vertex 10.75 -15.6195 0.5
      vertex 23.5 -27.5 0.5
      vertex 13.1609 -13.868 0.5
    endloop
  endfacet
  facet normal -0 0 1
    outer loop
      vertex 7.5932 -17.025 0.5
      vertex 23.5 -27.5 0.5
      vertex 10.75 -15.6195 0.5
    endloop
  endfacet
  facet normal -0 0 1
    outer loop
      vertex 6.67934 -17.4319 0.5
      vertex 23.5 -27.5 0.5
      vertex 7.5932 -17.025 0.5
    endloop
  endfacet
  facet normal -0 0 1
    outer loop
      vertex 6.64386 -17.4477 0.5
      vertex 23.5 -27.5 0.5
      vertex 6.67934 -17.4319 0.5
    endloop
  endfacet
  facet normal -0 0 1
    outer loop
      vertex 2.24736 -18.3822 0.5
      vertex 23.5 -27.5 0.5
      vertex 6.64386 -17.4477 0.5
    endloop
  endfacet
  facet normal -0 0 1
    outer loop
      vertex 0.5 -18.3822 0.5
      vertex 23.5 -27.5 0.5
      vertex 2.24736 -18.3822 0.5
    endloop
  endfacet
  facet normal 0 0 1
    outer loop
      vertex -0.5 -12.9123 0.5
      vertex 0.5 -12.9123 0.5
      vertex -0.5 18.9123 0.5
    endloop
  endfacet
  facet normal 0 0 1
    outer loop
      vertex 0.5 -12.9123 0.5
      vertex -0.5 -12.9123 0.5
      vertex 0.5 -18.3822 0.5
    endloop
  endfacet
  facet normal 0 0 1
    outer loop
      vertex -0.5 -18.3822 0.5
      vertex 0.5 -18.3822 0.5
      vertex -0.5 -12.9123 0.5
    endloop
  endfacet
  facet normal -0 0 1
    outer loop
      vertex -0.5 -18.3822 0.5
      vertex 23.5 -27.5 0.5
      vertex 0.5 -18.3822 0.5
    endloop
  endfacet
  facet normal 0 0 1
    outer loop
      vertex -23.5 -27.5 0.5
      vertex -0.5 -18.3822 0.5
      vertex -2.24736 -18.3822 0.5
    endloop
  endfacet
  facet normal 0 0 1
    outer loop
      vertex -23.5 -27.5 0.5
      vertex -2.24736 -18.3822 0.5
      vertex -6.64386 -17.4477 0.5
    endloop
  endfacet
  facet normal 0 0 1
    outer loop
      vertex -23.5 -27.5 0.5
      vertex -6.67934 -17.4319 0.5
      vertex -7.5932 -17.025 0.5
    endloop
  endfacet
  facet normal 0 0 1
    outer loop
      vertex -23.5 -27.5 0.5
      vertex -7.5932 -17.025 0.5
      vertex -10.75 -15.6195 0.5
    endloop
  endfacet
  facet normal 0 0 1
    outer loop
      vertex -23.5 -27.5 0.5
      vertex -13.1609 -13.868 0.5
      vertex -13.98 -13.2728 0.5
    endloop
  endfacet
  facet normal 0 0 1
    outer loop
      vertex -23.5 -27.5 0.5
      vertex -13.98 -13.2728 0.5
      vertex -14.3863 -12.9776 0.5
    endloop
  endfacet
  facet normal 0 0 1
    outer loop
      vertex -23.5 -27.5 0.5
      vertex -18.7794 -7.2375 0.5
      vertex -19.6412 -5.74484 0.5
    endloop
  endfacet
  facet normal 0 0 1
    outer loop
      vertex -18.7794 -7.2375 0.5
      vertex -23.5 -27.5 0.5
      vertex -18.2751 -8.111 0.5
    endloop
  endfacet
  facet normal 0 0 1
    outer loop
      vertex -23.5 -27.5 0.5
      vertex -21.1321 -0.499999 0.5
      vertex -21.2372 0.5 0.5
    endloop
  endfacet
  facet normal 0 0 1
    outer loop
      vertex -0.5 -18.3822 0.5
      vertex -23.5 -27.5 0.5
      vertex 23.5 -27.5 0.5
    endloop
  endfacet
  facet normal 0 0 1
    outer loop
      vertex -6.67934 -17.4319 0.5
      vertex -23.5 -27.5 0.5
      vertex -6.64386 -17.4477 0.5
    endloop
  endfacet
  facet normal 0 0 1
    outer loop
      vertex -13.1609 -13.868 0.5
      vertex -23.5 -27.5 0.5
      vertex -10.75 -15.6195 0.5
    endloop
  endfacet
  facet normal 0 0 1
    outer loop
      vertex -17.3939 -9.63738 0.5
      vertex -23.5 -27.5 0.5
      vertex -14.3863 -12.9776 0.5
    endloop
  endfacet
  facet normal 0 0 1
    outer loop
      vertex -18.2751 -8.111 0.5
      vertex -23.5 -27.5 0.5
      vertex -17.3939 -9.63738 0.5
    endloop
  endfacet
  facet normal 0 0 1
    outer loop
      vertex -21.0302 -1.4701 0.5
      vertex -23.5 -27.5 0.5
      vertex -19.6412 -5.74484 0.5
    endloop
  endfacet
  facet normal 0 0 1
    outer loop
      vertex -21.1321 -0.499999 0.5
      vertex -23.5 -27.5 0.5
      vertex -21.0302 -1.4701 0.5
    endloop
  endfacet
  facet normal 0 0 1
    outer loop
      vertex -21.5 3 0.5
      vertex -23.5 -27.5 0.5
      vertex -21.2372 0.5 0.5
    endloop
  endfacet
  facet normal 0 0 1
    outer loop
      vertex -23.5 -27.5 0.5
      vertex -21.5 3 0.5
      vertex -23.5 27.5 0.5
    endloop
  endfacet
  facet normal 0 0 1
    outer loop
      vertex 15.4507 6.94108 0.5
      vertex 20.8298 8.08679 0.5
      vertex 20.5198 9.04079 0.5
    endloop
  endfacet
  facet normal 0 0 1
    outer loop
      vertex 20.8298 8.08679 0.5
      vertex 15.4507 6.94108 0.5
      vertex 15.6892 5.95747 0.5
    endloop
  endfacet
  facet normal 0 0 1
    outer loop
      vertex 13.6823 -5.12621 0.5
      vertex 15.7372 0.499999 0.5
      vertex 15.4507 6.94108 0.5
    endloop
  endfacet
  facet normal 0 0 1
    outer loop
      vertex 12.3535 13.0606 0.5
      vertex 15.4507 6.94108 0.5
      vertex 14.6167 9.50779 0.5
    endloop
  endfacet
  facet normal 0 0 1
    outer loop
      vertex 15.7372 0.499999 0.5
      vertex 13.6823 -5.12621 0.5
      vertex 15.594 -0.5 0.5
    endloop
  endfacet
  facet normal 0 0 1
    outer loop
      vertex 15.594 -0.5 0.5
      vertex 13.6823 -5.12621 0.5
      vertex 14.6167 -3.50779 0.5
    endloop
  endfacet
  facet normal 0 0 1
    outer loop
      vertex 15.4507 6.94108 0.5
      vertex 12.3535 13.0606 0.5
      vertex 13.6823 -5.12621 0.5
    endloop
  endfacet
  facet normal 0 0 1
    outer loop
      vertex 12.3535 13.0606 0.5
      vertex 14.6167 9.50779 0.5
      vertex 13.0055 12.2984 0.5
    endloop
  endfacet
  facet normal 0 0 1
    outer loop
      vertex 9.24486 -9.95196 0.5
      vertex 13.6823 -5.12621 0.5
      vertex 12.3535 13.0606 0.5
    endloop
  endfacet
  facet normal 0 0 1
    outer loop
      vertex 12.3535 13.0606 0.5
      vertex 16.8967 16.1896 0.5
      vertex 16.2266 16.9337 0.5
    endloop
  endfacet
  facet normal 0 0 1
    outer loop
      vertex 16.8967 16.1896 0.5
      vertex 12.3535 13.0606 0.5
      vertex 13.0055 12.2984 0.5
    endloop
  endfacet
  facet normal 0 -0 1
    outer loop
      vertex 10.064 -9.35685 0.5
      vertex 13.6823 -5.12621 0.5
      vertex 9.24486 -9.95196 0.5
    endloop
  endfacet
  facet normal 0 0 1
    outer loop
      vertex 6.68371 17.4425 0.5
      vertex 12.3535 13.0606 0.5
      vertex 10.7061 14.8903 0.5
    endloop
  endfacet
  facet normal 0 -0 1
    outer loop
      vertex 10.7061 -8.89032 0.5
      vertex 13.178 -5.99971 0.5
      vertex 10.064 -9.35685 0.5
    endloop
  endfacet
  facet normal 0 0 1
    outer loop
      vertex 13.178 -5.99971 0.5
      vertex 10.7061 -8.89032 0.5
      vertex 12.9443 -6.40456 0.5
    endloop
  endfacet
  facet normal 0 0 1
    outer loop
      vertex 13.6823 -5.12621 0.5
      vertex 10.064 -9.35685 0.5
      vertex 13.178 -5.99971 0.5
    endloop
  endfacet
  facet normal 0 0 1
    outer loop
      vertex 7.59757 17.0356 0.5
      vertex 10.7061 14.8903 0.5
      vertex 8 16.8564 0.5
    endloop
  endfacet
  facet normal 0 0 1
    outer loop
      vertex 6.68371 17.4425 0.5
      vertex 10.7061 14.8903 0.5
      vertex 7.59757 17.0356 0.5
    endloop
  endfacet
  facet normal 0 0 1
    outer loop
      vertex 12.3535 13.0606 0.5
      vertex 6.68371 17.4425 0.5
      vertex 9.24486 -9.95196 0.5
    endloop
  endfacet
  facet normal 0 0 1
    outer loop
      vertex 5.49925 -11.9698 0.5
      vertex 9.24486 -9.95196 0.5
      vertex 6.68371 17.4425 0.5
    endloop
  endfacet
  facet normal 0 0 1
    outer loop
      vertex 9.24486 -9.95196 0.5
      vertex 5.49925 -11.9698 0.5
      vertex 8 -10.8564 0.5
    endloop
  endfacet
  facet normal 0 0 1
    outer loop
      vertex 0.5 18.9123 0.5
      vertex 6.68371 17.4425 0.5
      vertex 4.94427 18.2169 0.5
    endloop
  endfacet
  facet normal 1 -0 0
    outer loop
      vertex 23.5 -27.5 0.5
      vertex 23.5 27.5 -0.5
      vertex 23.5 27.5 0.5
    endloop
  endfacet
  facet normal 1 0 0
    outer loop
      vertex 23.5 27.5 -0.5
      vertex 23.5 -27.5 0.5
      vertex 23.5 -27.5 -0.5
    endloop
  endfacet
  facet normal 0 1 -0
    outer loop
      vertex 23.5 27.5 -0.5
      vertex -23.5 27.5 0.5
      vertex 23.5 27.5 0.5
    endloop
  endfacet
  facet normal 0 1 0
    outer loop
      vertex -23.5 27.5 0.5
      vertex 23.5 27.5 -0.5
      vertex -23.5 27.5 -0.5
    endloop
  endfacet
  facet normal 0 0 -1
    outer loop
      vertex -15.4507 6.94108 -0.5
      vertex -15.7372 0.5 -0.5
      vertex -15.6892 5.95747 -0.5
    endloop
  endfacet
  facet normal 0 0 -1
    outer loop
      vertex -21.1321 -0.499999 -0.5
      vertex -15.7372 0.5 -0.5
      vertex -15.594 -0.499999 -0.5
    endloop
  endfacet
  facet normal -0 0 -1
    outer loop
      vertex -15.7372 0.5 -0.5
      vertex -21.1321 -0.499999 -0.5
      vertex -21.2372 0.5 -0.5
    endloop
  endfacet
  facet normal 0 0 -1
    outer loop
      vertex -18.2751 -8.111 -0.5
      vertex -13.6823 -5.12621 -0.5
      vertex -13.178 -5.99971 -0.5
    endloop
  endfacet
  facet normal 0 0 -1
    outer loop
      vertex -13.6823 -5.12621 -0.5
      vertex -18.2751 -8.111 -0.5
      vertex -18.7794 -7.2375 -0.5
    endloop
  endfacet
  facet normal 0 0 -1
    outer loop
      vertex -9.24486 -9.95196 -0.5
      vertex -13.6823 -5.12621 -0.5
      vertex -12.3535 13.0606 -0.5
    endloop
  endfacet
  facet normal 0 0 -1
    outer loop
      vertex -15.4507 6.94108 -0.5
      vertex -12.3535 13.0606 -0.5
      vertex -13.6823 -5.12621 -0.5
    endloop
  endfacet
  facet normal 0 0 -1
    outer loop
      vertex -15.594 -0.499999 -0.5
      vertex -13.6823 -5.12621 -0.5
      vertex -14.6167 -3.50779 -0.5
    endloop
  endfacet
  facet normal 0 -0 -1
    outer loop
      vertex -14.6167 9.50779 -0.5
      vertex -12.3535 13.0606 -0.5
      vertex -15.4507 6.94108 -0.5
    endloop
  endfacet
  facet normal 0 0 -1
    outer loop
      vertex -12.3535 13.0606 -0.5
      vertex -14.6167 9.50779 -0.5
      vertex -13.0055 12.2984 -0.5
    endloop
  endfacet
  facet normal 0 0 -1
    outer loop
      vertex -15.7372 0.5 -0.5
      vertex -13.6823 -5.12621 -0.5
      vertex -15.594 -0.499999 -0.5
    endloop
  endfacet
  facet normal 0 0 -1
    outer loop
      vertex -13.6823 -5.12621 -0.5
      vertex -15.7372 0.5 -0.5
      vertex -15.4507 6.94108 -0.5
    endloop
  endfacet
  facet normal 0 0 -1
    outer loop
      vertex -20.8298 8.08679 -0.5
      vertex -15.4507 6.94108 -0.5
      vertex -15.6892 5.95747 -0.5
    endloop
  endfacet
  facet normal 0 0 -1
    outer loop
      vertex -15.4507 6.94108 -0.5
      vertex -20.8298 8.08679 -0.5
      vertex -20.5198 9.04079 -0.5
    endloop
  endfacet
  facet normal 0 0 -1
    outer loop
      vertex -13.1609 -13.868 -0.5
      vertex -10.064 -9.35685 -0.5
      vertex -9.24486 -9.95196 -0.5
    endloop
  endfacet
  facet normal 0 0 -1
    outer loop
      vertex -10.064 -9.35685 -0.5
      vertex -13.1609 -13.868 -0.5
      vertex -13.98 -13.2728 -0.5
    endloop
  endfacet
  facet normal 0 0 -1
    outer loop
      vertex -15.6892 5.95747 -0.5
      vertex -15.7372 0.5 -0.5
      vertex -16 3 -0.5
    endloop
  endfacet
  facet normal 0 0 -1
    outer loop
      vertex -4.55361 -12.2999 -0.5
      vertex -0.5 -12.9123 -0.5
      vertex -1.67245 -12.9123 -0.5
    endloop
  endfacet
  facet normal 0 0 -1
    outer loop
      vertex -5.49925 -11.9698 -0.5
      vertex -0.5 -12.9123 -0.5
      vertex -4.55361 -12.2999 -0.5
    endloop
  endfacet
  facet normal 0 0 -1
    outer loop
      vertex -0.5 -12.9123 -0.5
      vertex -5.49925 -11.9698 -0.5
      vertex -0.5 18.9123 -0.5
    endloop
  endfacet
  facet normal 0 -0 -1
    outer loop
      vertex -4.94427 18.2169 -0.5
      vertex -0.5 18.9123 -0.5
      vertex -6.68371 17.4425 -0.5
    endloop
  endfacet
  facet normal 0 0 -1
    outer loop
      vertex -0.5 18.9123 -0.5
      vertex -5.49925 -11.9698 -0.5
      vertex -6.68371 17.4425 -0.5
    endloop
  endfacet
  facet normal 0 0 -1
    outer loop
      vertex -6.67934 -17.4319 -0.5
      vertex -5.49925 -11.9698 -0.5
      vertex -4.55361 -12.2999 -0.5
    endloop
  endfacet
  facet normal 0 0 -1
    outer loop
      vertex -5.49925 -11.9698 -0.5
      vertex -6.67934 -17.4319 -0.5
      vertex -7.5932 -17.025 -0.5
    endloop
  endfacet
  facet normal 0 0 -1
    outer loop
      vertex 6.68371 17.4425 -0.5
      vertex 9.69151 22.0908 -0.5
      vertex 7.59757 17.0356 -0.5
    endloop
  endfacet
  facet normal -0 0 -1
    outer loop
      vertex 9.69151 22.0908 -0.5
      vertex 6.68371 17.4425 -0.5
      vertex 8.77765 22.4977 -0.5
    endloop
  endfacet
  facet normal 0 0 -1
    outer loop
      vertex 6.67934 -17.4319 -0.5
      vertex 5.49925 -11.9698 -0.5
      vertex 7.5932 -17.025 -0.5
    endloop
  endfacet
  facet normal 0 0 -1
    outer loop
      vertex 4.55361 -12.2999 -0.5
      vertex 5.49925 -11.9698 -0.5
      vertex 6.67934 -17.4319 -0.5
    endloop
  endfacet
  facet normal -0 0 -1
    outer loop
      vertex 9.24486 -9.95196 -0.5
      vertex 0.5 -12.9123 -0.5
      vertex 6.68371 17.4425 -0.5
    endloop
  endfacet
  facet normal 0 0 -1
    outer loop
      vertex 0.5 -12.9123 -0.5
      vertex 4.55361 -12.2999 -0.5
      vertex 1.67245 -12.9123 -0.5
    endloop
  endfacet
  facet normal 0 0 -1
    outer loop
      vertex 0.5 18.9123 -0.5
      vertex 6.68371 17.4425 -0.5
      vertex 0.5 -12.9123 -0.5
    endloop
  endfacet
  facet normal 0 0 -1
    outer loop
      vertex 6.68371 17.4425 -0.5
      vertex 0.5 18.9123 -0.5
      vertex 4.94427 18.2169 -0.5
    endloop
  endfacet
  facet normal 0 0 -1
    outer loop
      vertex 4.94427 18.2169 -0.5
      vertex 0.5 18.9123 -0.5
      vertex 1.67245 18.9123 -0.5
    endloop
  endfacet
  facet normal -0 0 -1
    outer loop
      vertex -0.5 18.9123 -0.5
      vertex -4.94427 18.2169 -0.5
      vertex -1.67245 18.9123 -0.5
    endloop
  endfacet
  facet normal 0 0 -1
    outer loop
      vertex -9.24486 -9.95196 -0.5
      vertex -6.68371 17.4425 -0.5
      vertex -5.49925 -11.9698 -0.5
    endloop
  endfacet
  facet normal 0 0 -1
    outer loop
      vertex -12.3535 13.0606 -0.5
      vertex -6.68371 17.4425 -0.5
      vertex -9.24486 -9.95196 -0.5
    endloop
  endfacet
  facet normal 0 0 -1
    outer loop
      vertex -9.24486 -9.95196 -0.5
      vertex -5.49925 -11.9698 -0.5
      vertex -8 -10.8564 -0.5
    endloop
  endfacet
  facet normal 0 0 -1
    outer loop
      vertex -6.68371 17.4425 -0.5
      vertex -12.3535 13.0606 -0.5
      vertex -7.59756 17.0356 -0.5
    endloop
  endfacet
  facet normal 0 0 -1
    outer loop
      vertex -13.6823 -5.12621 -0.5
      vertex -10.064 -9.35685 -0.5
      vertex -13.178 -5.99971 -0.5
    endloop
  endfacet
  facet normal 0 0 -1
    outer loop
      vertex -13.178 -5.99971 -0.5
      vertex -10.7061 -8.89032 -0.5
      vertex -12.9443 -6.40456 -0.5
    endloop
  endfacet
  facet normal 0 -0 -1
    outer loop
      vertex -10.7061 14.8903 -0.5
      vertex -7.59756 17.0356 -0.5
      vertex -12.3535 13.0606 -0.5
    endloop
  endfacet
  facet normal 0 0 -1
    outer loop
      vertex -7.59756 17.0356 -0.5
      vertex -10.7061 14.8903 -0.5
      vertex -8 16.8564 -0.5
    endloop
  endfacet
  facet normal 0 0 -1
    outer loop
      vertex -10.7061 -8.89032 -0.5
      vertex -13.178 -5.99971 -0.5
      vertex -10.064 -9.35685 -0.5
    endloop
  endfacet
  facet normal 0 0 -1
    outer loop
      vertex -10.064 -9.35685 -0.5
      vertex -13.6823 -5.12621 -0.5
      vertex -9.24486 -9.95196 -0.5
    endloop
  endfacet
  facet normal 0 0 -1
    outer loop
      vertex -16.8967 16.1896 -0.5
      vertex -12.3535 13.0606 -0.5
      vertex -13.0055 12.2984 -0.5
    endloop
  endfacet
  facet normal 0 0 -1
    outer loop
      vertex -12.3535 13.0606 -0.5
      vertex -16.8967 16.1896 -0.5
      vertex -16.2266 16.9337 -0.5
    endloop
  endfacet
  facet normal 0 0 -1
    outer loop
      vertex -9.69151 22.0908 -0.5
      vertex -6.68371 17.4425 -0.5
      vertex -7.59756 17.0356 -0.5
    endloop
  endfacet
  facet normal 0 0 -1
    outer loop
      vertex -6.68371 17.4425 -0.5
      vertex -9.69151 22.0908 -0.5
      vertex -8.77765 22.4977 -0.5
    endloop
  endfacet
  facet normal 0 0 -1
    outer loop
      vertex 13.1609 -13.868 -0.5
      vertex 10.064 -9.35685 -0.5
      vertex 13.98 -13.2728 -0.5
    endloop
  endfacet
  facet normal 0 -0 -1
    outer loop
      vertex 10.064 -9.35685 -0.5
      vertex 13.1609 -13.868 -0.5
      vertex 9.24486 -9.95196 -0.5
    endloop
  endfacet
  facet normal 0 0 -1
    outer loop
      vertex 12.3535 13.0606 -0.5
      vertex 16.8967 16.1896 -0.5
      vertex 13.0055 12.2984 -0.5
    endloop
  endfacet
  facet normal -0 0 -1
    outer loop
      vertex 16.8967 16.1896 -0.5
      vertex 12.3535 13.0606 -0.5
      vertex 16.2266 16.9337 -0.5
    endloop
  endfacet
  facet normal 0 0 -1
    outer loop
      vertex 14.6167 9.50779 -0.5
      vertex 12.3535 13.0606 -0.5
      vertex 13.0055 12.2984 -0.5
    endloop
  endfacet
  facet normal 0 0 -1
    outer loop
      vertex 13.178 -5.99971 -0.5
      vertex 10.7061 -8.89032 -0.5
      vertex 10.064 -9.35685 -0.5
    endloop
  endfacet
  facet normal 0 0 -1
    outer loop
      vertex 9.24486 -9.95196 -0.5
      vertex 13.178 -5.99971 -0.5
      vertex 10.064 -9.35685 -0.5
    endloop
  endfacet
  facet normal -0 0 -1
    outer loop
      vertex 13.178 -5.99971 -0.5
      vertex 9.24486 -9.95196 -0.5
      vertex 12.3535 13.0606 -0.5
    endloop
  endfacet
  facet normal 0 0 -1
    outer loop
      vertex 6.68371 17.4425 -0.5
      vertex 12.3535 13.0606 -0.5
      vertex 9.24486 -9.95196 -0.5
    endloop
  endfacet
  facet normal 0 0 -1
    outer loop
      vertex 5.49925 -11.9698 -0.5
      vertex 9.24486 -9.95196 -0.5
      vertex 8 -10.8564 -0.5
    endloop
  endfacet
  facet normal 0 0 -1
    outer loop
      vertex 12.3535 13.0606 -0.5
      vertex 6.68371 17.4425 -0.5
      vertex 10.7061 14.8903 -0.5
    endloop
  endfacet
  facet normal 0 0 -1
    outer loop
      vertex 10.7061 14.8903 -0.5
      vertex 7.59757 17.0356 -0.5
      vertex 8 16.8564 -0.5
    endloop
  endfacet
  facet normal 0 0 -1
    outer loop
      vertex 10.7061 14.8903 -0.5
      vertex 6.68371 17.4425 -0.5
      vertex 7.59757 17.0356 -0.5
    endloop
  endfacet
  facet normal 0 0 -1
    outer loop
      vertex 0.5 -12.9123 -0.5
      vertex 9.24486 -9.95196 -0.5
      vertex 5.49925 -11.9698 -0.5
    endloop
  endfacet
  facet normal 0 0 -1
    outer loop
      vertex 0.5 -12.9123 -0.5
      vertex 5.49925 -11.9698 -0.5
      vertex 4.55361 -12.2999 -0.5
    endloop
  endfacet
  facet normal 0 0 -1
    outer loop
      vertex 15.4507 6.94108 -0.5
      vertex 20.8298 8.08679 -0.5
      vertex 15.6892 5.95747 -0.5
    endloop
  endfacet
  facet normal -0 0 -1
    outer loop
      vertex 20.8298 8.08679 -0.5
      vertex 15.4507 6.94108 -0.5
      vertex 20.5198 9.04079 -0.5
    endloop
  endfacet
  facet normal 0 0 -1
    outer loop
      vertex 15.7372 0.499999 -0.5
      vertex 15.4507 6.94108 -0.5
      vertex 15.6892 5.95747 -0.5
    endloop
  endfacet
  facet normal 0 0 -1
    outer loop
      vertex 13.6823 -5.12621 -0.5
      vertex 15.594 -0.5 -0.5
      vertex 14.6167 -3.50779 -0.5
    endloop
  endfacet
  facet normal -0 0 -1
    outer loop
      vertex 15.7372 0.499999 -0.5
      vertex 13.6823 -5.12621 -0.5
      vertex 15.4507 6.94108 -0.5
    endloop
  endfacet
  facet normal 0 0 -1
    outer loop
      vertex 12.3535 13.0606 -0.5
      vertex 15.4507 6.94108 -0.5
      vertex 13.6823 -5.12621 -0.5
    endloop
  endfacet
  facet normal 0 0 -1
    outer loop
      vertex 12.3535 13.0606 -0.5
      vertex 13.6823 -5.12621 -0.5
      vertex 13.178 -5.99971 -0.5
    endloop
  endfacet
  facet normal 0 0 -1
    outer loop
      vertex 12.3535 13.0606 -0.5
      vertex 14.6167 9.50779 -0.5
      vertex 15.4507 6.94108 -0.5
    endloop
  endfacet
  facet normal 0 0 -1
    outer loop
      vertex 10.7061 -8.89032 -0.5
      vertex 13.178 -5.99971 -0.5
      vertex 12.9443 -6.40456 -0.5
    endloop
  endfacet
  facet normal 0 0 -1
    outer loop
      vertex 23.5 -27.5 -0.5
      vertex 21.5 3 -0.5
      vertex 23.5 27.5 -0.5
    endloop
  endfacet
  facet normal 0 0 -1
    outer loop
      vertex 23.5 -27.5 -0.5
      vertex 21.2372 0.499999 -0.5
      vertex 21.5 3 -0.5
    endloop
  endfacet
  facet normal 0 0 -1
    outer loop
      vertex 23.5 -27.5 -0.5
      vertex 21.1321 -0.5 -0.5
      vertex 21.2372 0.499999 -0.5
    endloop
  endfacet
  facet normal 0 0 -1
    outer loop
      vertex 23.5 -27.5 -0.5
      vertex 21.0302 -1.4701 -0.5
      vertex 21.1321 -0.5 -0.5
    endloop
  endfacet
  facet normal 0 0 -1
    outer loop
      vertex 23.5 -27.5 -0.5
      vertex 19.6412 -5.74484 -0.5
      vertex 21.0302 -1.4701 -0.5
    endloop
  endfacet
  facet normal 0 0 -1
    outer loop
      vertex 23.5 -27.5 -0.5
      vertex 18.7794 -7.2375 -0.5
      vertex 19.6412 -5.74484 -0.5
    endloop
  endfacet
  facet normal 0 0 -1
    outer loop
      vertex 23.5 -27.5 -0.5
      vertex 18.2751 -8.111 -0.5
      vertex 18.7794 -7.2375 -0.5
    endloop
  endfacet
  facet normal 0 0 -1
    outer loop
      vertex 23.5 -27.5 -0.5
      vertex 17.3939 -9.63738 -0.5
      vertex 18.2751 -8.111 -0.5
    endloop
  endfacet
  facet normal 0 0 -1
    outer loop
      vertex 23.5 -27.5 -0.5
      vertex 14.3863 -12.9776 -0.5
      vertex 17.3939 -9.63738 -0.5
    endloop
  endfacet
  facet normal 0 0 -1
    outer loop
      vertex 23.5 -27.5 -0.5
      vertex 13.98 -13.2728 -0.5
      vertex 14.3863 -12.9776 -0.5
    endloop
  endfacet
  facet normal 0 0 -1
    outer loop
      vertex 23.5 -27.5 -0.5
      vertex 13.1609 -13.868 -0.5
      vertex 13.98 -13.2728 -0.5
    endloop
  endfacet
  facet normal 0 0 -1
    outer loop
      vertex 23.5 -27.5 -0.5
      vertex 10.75 -15.6195 -0.5
      vertex 13.1609 -13.868 -0.5
    endloop
  endfacet
  facet normal 0 0 -1
    outer loop
      vertex 23.5 -27.5 -0.5
      vertex 7.5932 -17.025 -0.5
      vertex 10.75 -15.6195 -0.5
    endloop
  endfacet
  facet normal 0 0 -1
    outer loop
      vertex 23.5 -27.5 -0.5
      vertex 6.67934 -17.4319 -0.5
      vertex 7.5932 -17.025 -0.5
    endloop
  endfacet
  facet normal 0 0 -1
    outer loop
      vertex 23.5 -27.5 -0.5
      vertex 6.64386 -17.4477 -0.5
      vertex 6.67934 -17.4319 -0.5
    endloop
  endfacet
  facet normal 0 0 -1
    outer loop
      vertex 23.5 -27.5 -0.5
      vertex 2.24736 -18.3822 -0.5
      vertex 6.64386 -17.4477 -0.5
    endloop
  endfacet
  facet normal 0 0 -1
    outer loop
      vertex 23.5 -27.5 -0.5
      vertex 0.5 -18.3822 -0.5
      vertex 2.24736 -18.3822 -0.5
    endloop
  endfacet
  facet normal 0 0 -1
    outer loop
      vertex -0.5 -12.9123 -0.5
      vertex 0.5 -12.9123 -0.5
      vertex 0.5 -18.3822 -0.5
    endloop
  endfacet
  facet normal 0 0 -1
    outer loop
      vertex 0.5 -12.9123 -0.5
      vertex -0.5 -12.9123 -0.5
      vertex 0.5 18.9123 -0.5
    endloop
  endfacet
  facet normal 0 0 -1
    outer loop
      vertex -0.5 -12.9123 -0.5
      vertex 0.5 -18.3822 -0.5
      vertex -0.5 -18.3822 -0.5
    endloop
  endfacet
  facet normal 0 0 -1
    outer loop
      vertex 23.5 -27.5 -0.5
      vertex -0.5 -18.3822 -0.5
      vertex 0.5 -18.3822 -0.5
    endloop
  endfacet
  facet normal 0 0 -1
    outer loop
      vertex -23.5 -27.5 -0.5
      vertex -0.5 -18.3822 -0.5
      vertex 23.5 -27.5 -0.5
    endloop
  endfacet
  facet normal -0 0 -1
    outer loop
      vertex -0.5 -18.3822 -0.5
      vertex -23.5 -27.5 -0.5
      vertex -2.24736 -18.3822 -0.5
    endloop
  endfacet
  facet normal 0 0 -1
    outer loop
      vertex -23.5 -27.5 -0.5
      vertex -6.67934 -17.4319 -0.5
      vertex -6.64386 -17.4477 -0.5
    endloop
  endfacet
  facet normal -0 0 -1
    outer loop
      vertex -6.67934 -17.4319 -0.5
      vertex -23.5 -27.5 -0.5
      vertex -7.5932 -17.025 -0.5
    endloop
  endfacet
  facet normal 0 0 -1
    outer loop
      vertex -23.5 -27.5 -0.5
      vertex -13.1609 -13.868 -0.5
      vertex -10.75 -15.6195 -0.5
    endloop
  endfacet
  facet normal -0 0 -1
    outer loop
      vertex -13.1609 -13.868 -0.5
      vertex -23.5 -27.5 -0.5
      vertex -13.98 -13.2728 -0.5
    endloop
  endfacet
  facet normal 0 0 -1
    outer loop
      vertex -23.5 -27.5 -0.5
      vertex -18.7794 -7.2375 -0.5
      vertex -18.2751 -8.111 -0.5
    endloop
  endfacet
  facet normal 0 0 -1
    outer loop
      vertex -23.5 -27.5 -0.5
      vertex -18.2751 -8.111 -0.5
      vertex -17.3939 -9.63738 -0.5
    endloop
  endfacet
  facet normal 0 0 -1
    outer loop
      vertex -23.5 -27.5 -0.5
      vertex -21.1321 -0.499999 -0.5
      vertex -21.0302 -1.4701 -0.5
    endloop
  endfacet
  facet normal -0 0 -1
    outer loop
      vertex -21.2372 0.5 -0.5
      vertex -23.5 -27.5 -0.5
      vertex -21.5 3 -0.5
    endloop
  endfacet
  facet normal -0 0 -1
    outer loop
      vertex -21.1321 -0.499999 -0.5
      vertex -23.5 -27.5 -0.5
      vertex -21.2372 0.5 -0.5
    endloop
  endfacet
  facet normal -0 0 -1
    outer loop
      vertex -19.6412 -5.74484 -0.5
      vertex -23.5 -27.5 -0.5
      vertex -21.0302 -1.4701 -0.5
    endloop
  endfacet
  facet normal -0 0 -1
    outer loop
      vertex -18.7794 -7.2375 -0.5
      vertex -23.5 -27.5 -0.5
      vertex -19.6412 -5.74484 -0.5
    endloop
  endfacet
  facet normal -0 0 -1
    outer loop
      vertex -14.3863 -12.9776 -0.5
      vertex -23.5 -27.5 -0.5
      vertex -17.3939 -9.63738 -0.5
    endloop
  endfacet
  facet normal -0 0 -1
    outer loop
      vertex -13.98 -13.2728 -0.5
      vertex -23.5 -27.5 -0.5
      vertex -14.3863 -12.9776 -0.5
    endloop
  endfacet
  facet normal -0 0 -1
    outer loop
      vertex -7.5932 -17.025 -0.5
      vertex -23.5 -27.5 -0.5
      vertex -10.75 -15.6195 -0.5
    endloop
  endfacet
  facet normal -0 0 -1
    outer loop
      vertex -2.24736 -18.3822 -0.5
      vertex -23.5 -27.5 -0.5
      vertex -6.64386 -17.4477 -0.5
    endloop
  endfacet
  facet normal 0 0 -1
    outer loop
      vertex 21.0302 7.4701 -0.5
      vertex 23.5 27.5 -0.5
      vertex 21.5 3 -0.5
    endloop
  endfacet
  facet normal 0 0 -1
    outer loop
      vertex 20.8298 8.08679 -0.5
      vertex 23.5 27.5 -0.5
      vertex 21.0302 7.4701 -0.5
    endloop
  endfacet
  facet normal 0 0 -1
    outer loop
      vertex 20.5198 9.04079 -0.5
      vertex 23.5 27.5 -0.5
      vertex 20.8298 8.08679 -0.5
    endloop
  endfacet
  facet normal 0 0 -1
    outer loop
      vertex 19.6412 11.7448 -0.5
      vertex 23.5 27.5 -0.5
      vertex 20.5198 9.04079 -0.5
    endloop
  endfacet
  facet normal 0 0 -1
    outer loop
      vertex 17.3939 15.6374 -0.5
      vertex 23.5 27.5 -0.5
      vertex 19.6412 11.7448 -0.5
    endloop
  endfacet
  facet normal 0 0 -1
    outer loop
      vertex 16.8967 16.1896 -0.5
      vertex 23.5 27.5 -0.5
      vertex 17.3939 15.6374 -0.5
    endloop
  endfacet
  facet normal 0 0 -1
    outer loop
      vertex 16.2266 16.9337 -0.5
      vertex 23.5 27.5 -0.5
      vertex 16.8967 16.1896 -0.5
    endloop
  endfacet
  facet normal 0 0 -1
    outer loop
      vertex 14.3863 18.9776 -0.5
      vertex 23.5 27.5 -0.5
      vertex 16.2266 16.9337 -0.5
    endloop
  endfacet
  facet normal 0 0 -1
    outer loop
      vertex 10.75 21.6195 -0.5
      vertex 23.5 27.5 -0.5
      vertex 14.3863 18.9776 -0.5
    endloop
  endfacet
  facet normal 0 0 -1
    outer loop
      vertex 9.69151 22.0908 -0.5
      vertex 23.5 27.5 -0.5
      vertex 10.75 21.6195 -0.5
    endloop
  endfacet
  facet normal 0 0 -1
    outer loop
      vertex 8.77765 22.4977 -0.5
      vertex 23.5 27.5 -0.5
      vertex 9.69151 22.0908 -0.5
    endloop
  endfacet
  facet normal 0 0 -1
    outer loop
      vertex 6.64386 23.4477 -0.5
      vertex 23.5 27.5 -0.5
      vertex 8.77765 22.4977 -0.5
    endloop
  endfacet
  facet normal 0 0 -1
    outer loop
      vertex 2.24736 24.3822 -0.5
      vertex 23.5 27.5 -0.5
      vertex 6.64386 23.4477 -0.5
    endloop
  endfacet
  facet normal 0 0 -1
    outer loop
      vertex 0.5 24.3822 -0.5
      vertex 23.5 27.5 -0.5
      vertex 2.24736 24.3822 -0.5
    endloop
  endfacet
  facet normal 0 0 -1
    outer loop
      vertex -0.5 18.9123 -0.5
      vertex 0.5 18.9123 -0.5
      vertex -0.5 -12.9123 -0.5
    endloop
  endfacet
  facet normal 0 0 -1
    outer loop
      vertex 0.5 18.9123 -0.5
      vertex -0.5 18.9123 -0.5
      vertex 0.5 24.3822 -0.5
    endloop
  endfacet
  facet normal 0 0 -1
    outer loop
      vertex -0.5 24.3822 -0.5
      vertex 0.5 24.3822 -0.5
      vertex -0.5 18.9123 -0.5
    endloop
  endfacet
  facet normal 0 0 -1
    outer loop
      vertex -0.5 24.3822 -0.5
      vertex 23.5 27.5 -0.5
      vertex 0.5 24.3822 -0.5
    endloop
  endfacet
  facet normal 0 0 -1
    outer loop
      vertex -23.5 27.5 -0.5
      vertex -0.5 24.3822 -0.5
      vertex -2.24736 24.3822 -0.5
    endloop
  endfacet
  facet normal 0 0 -1
    outer loop
      vertex -23.5 27.5 -0.5
      vertex -8.77765 22.4977 -0.5
      vertex -9.69151 22.0908 -0.5
    endloop
  endfacet
  facet normal 0 0 -1
    outer loop
      vertex -23.5 27.5 -0.5
      vertex -9.69151 22.0908 -0.5
      vertex -10.75 21.6195 -0.5
    endloop
  endfacet
  facet normal 0 0 -1
    outer loop
      vertex -23.5 27.5 -0.5
      vertex -16.2266 16.9337 -0.5
      vertex -16.8967 16.1896 -0.5
    endloop
  endfacet
  facet normal 0 0 -1
    outer loop
      vertex -23.5 27.5 -0.5
      vertex -20.5198 9.04079 -0.5
      vertex -20.8298 8.08679 -0.5
    endloop
  endfacet
  facet normal 0 0 -1
    outer loop
      vertex -23.5 27.5 -0.5
      vertex -20.8298 8.08679 -0.5
      vertex -21.0302 7.4701 -0.5
    endloop
  endfacet
  facet normal 0 0 -1
    outer loop
      vertex -0.5 24.3822 -0.5
      vertex -23.5 27.5 -0.5
      vertex 23.5 27.5 -0.5
    endloop
  endfacet
  facet normal 0 0 -1
    outer loop
      vertex -6.64386 23.4477 -0.5
      vertex -23.5 27.5 -0.5
      vertex -2.24736 24.3822 -0.5
    endloop
  endfacet
  facet normal 0 0 -1
    outer loop
      vertex -8.77765 22.4977 -0.5
      vertex -23.5 27.5 -0.5
      vertex -6.64386 23.4477 -0.5
    endloop
  endfacet
  facet normal 0 0 -1
    outer loop
      vertex -14.3863 18.9776 -0.5
      vertex -23.5 27.5 -0.5
      vertex -10.75 21.6195 -0.5
    endloop
  endfacet
  facet normal 0 0 -1
    outer loop
      vertex -16.2266 16.9337 -0.5
      vertex -23.5 27.5 -0.5
      vertex -14.3863 18.9776 -0.5
    endloop
  endfacet
  facet normal 0 0 -1
    outer loop
      vertex -17.3939 15.6374 -0.5
      vertex -23.5 27.5 -0.5
      vertex -16.8967 16.1896 -0.5
    endloop
  endfacet
  facet normal 0 0 -1
    outer loop
      vertex -19.6412 11.7448 -0.5
      vertex -23.5 27.5 -0.5
      vertex -17.3939 15.6374 -0.5
    endloop
  endfacet
  facet normal 0 0 -1
    outer loop
      vertex -20.5198 9.04079 -0.5
      vertex -23.5 27.5 -0.5
      vertex -19.6412 11.7448 -0.5
    endloop
  endfacet
  facet normal 0 0 -1
    outer loop
      vertex -21.5 3 -0.5
      vertex -23.5 27.5 -0.5
      vertex -21.0302 7.4701 -0.5
    endloop
  endfacet
  facet normal 0 0 -1
    outer loop
      vertex -23.5 27.5 -0.5
      vertex -21.5 3 -0.5
      vertex -23.5 -27.5 -0.5
    endloop
  endfacet
  facet normal 0 0 -1
    outer loop
      vertex 21.1321 -0.5 -0.5
      vertex 15.7372 0.499999 -0.5
      vertex 21.2372 0.499999 -0.5
    endloop
  endfacet
  facet normal 0 0 -1
    outer loop
      vertex 13.6823 -5.12621 -0.5
      vertex 15.7372 0.499999 -0.5
      vertex 15.594 -0.5 -0.5
    endloop
  endfacet
  facet normal 0 0 -1
    outer loop
      vertex 15.594 -0.5 -0.5
      vertex 15.7372 0.499999 -0.5
      vertex 21.1321 -0.5 -0.5
    endloop
  endfacet
  facet normal 0 0 -1
    outer loop
      vertex 18.2751 -8.111 -0.5
      vertex 13.6823 -5.12621 -0.5
      vertex 18.7794 -7.2375 -0.5
    endloop
  endfacet
  facet normal 0 -0 -1
    outer loop
      vertex 13.6823 -5.12621 -0.5
      vertex 18.2751 -8.111 -0.5
      vertex 13.178 -5.99971 -0.5
    endloop
  endfacet
  facet normal -0 0 -1
    outer loop
      vertex 16 3 -0.5
      vertex 15.7372 0.499999 -0.5
      vertex 15.6892 5.95747 -0.5
    endloop
  endfacet
  facet normal 0 -1 0
    outer loop
      vertex -23.5 -27.5 -0.5
      vertex 23.5 -27.5 0.5
      vertex -23.5 -27.5 0.5
    endloop
  endfacet
  facet normal 0 -1 -0
    outer loop
      vertex 23.5 -27.5 0.5
      vertex -23.5 -27.5 -0.5
      vertex 23.5 -27.5 -0.5
    endloop
  endfacet
  facet normal -1 0 0
    outer loop
      vertex -0.5 18.9123 -0.5
      vertex -0.5 24.3822 0.5
      vertex -0.5 24.3822 -0.5
    endloop
  endfacet
  facet normal -1 -0 0
    outer loop
      vertex -0.5 24.3822 0.5
      vertex -0.5 18.9123 -0.5
      vertex -0.5 18.9123 0.5
    endloop
  endfacet
  facet normal -1 0 0
    outer loop
      vertex -0.5 -18.3822 -0.5
      vertex -0.5 -12.9123 0.5
      vertex -0.5 -12.9123 -0.5
    endloop
  endfacet
  facet normal -1 -0 0
    outer loop
      vertex -0.5 -12.9123 0.5
      vertex -0.5 -18.3822 -0.5
      vertex -0.5 -18.3822 0.5
    endloop
  endfacet
  facet normal 1 -0 0
    outer loop
      vertex 0.5 18.9123 0.5
      vertex 0.5 24.3822 -0.5
      vertex 0.5 24.3822 0.5
    endloop
  endfacet
  facet normal 1 0 0
    outer loop
      vertex 0.5 24.3822 -0.5
      vertex 0.5 18.9123 0.5
      vertex 0.5 18.9123 -0.5
    endloop
  endfacet
  facet normal 1 -0 0
    outer loop
      vertex 0.5 -18.3822 0.5
      vertex 0.5 -12.9123 -0.5
      vertex 0.5 -12.9123 0.5
    endloop
  endfacet
  facet normal 1 0 0
    outer loop
      vertex 0.5 -12.9123 -0.5
      vertex 0.5 -18.3822 0.5
      vertex 0.5 -18.3822 -0.5
    endloop
  endfacet
  facet normal 2.16744e-08 1 -0
    outer loop
      vertex -15.7372 0.5 -0.5
      vertex -21.2372 0.5 0.5
      vertex -15.7372 0.5 0.5
    endloop
  endfacet
  facet normal 2.16744e-08 1 0
    outer loop
      vertex -21.2372 0.5 0.5
      vertex -15.7372 0.5 -0.5
      vertex -21.2372 0.5 -0.5
    endloop
  endfacet
  facet normal 2.16744e-08 1 -0
    outer loop
      vertex 21.2372 0.499999 -0.5
      vertex 15.7372 0.499999 0.5
      vertex 21.2372 0.499999 0.5
    endloop
  endfacet
  facet normal 2.16744e-08 1 0
    outer loop
      vertex 15.7372 0.499999 0.5
      vertex 21.2372 0.499999 -0.5
      vertex 15.7372 0.499999 -0.5
    endloop
  endfacet
  facet normal -2.15252e-08 -1 0
    outer loop
      vertex -21.1321 -0.499999 -0.5
      vertex -15.594 -0.499999 0.5
      vertex -21.1321 -0.499999 0.5
    endloop
  endfacet
  facet normal -2.15252e-08 -1 -0
    outer loop
      vertex -15.594 -0.499999 0.5
      vertex -21.1321 -0.499999 -0.5
      vertex -15.594 -0.499999 -0.5
    endloop
  endfacet
  facet normal -2.15252e-08 -1 0
    outer loop
      vertex 15.594 -0.5 -0.5
      vertex 21.1321 -0.5 0.5
      vertex 15.594 -0.5 0.5
    endloop
  endfacet
  facet normal -2.15252e-08 -1 -0
    outer loop
      vertex 21.1321 -0.5 0.5
      vertex 15.594 -0.5 -0.5
      vertex 21.1321 -0.5 -0.5
    endloop
  endfacet
  facet normal -0.382684 0.923879 0
    outer loop
      vertex -13.6823 -5.12621 -0.5
      vertex -18.7794 -7.2375 0.5
      vertex -13.6823 -5.12621 0.5
    endloop
  endfacet
  facet normal -0.382684 0.923879 0
    outer loop
      vertex -18.7794 -7.2375 0.5
      vertex -13.6823 -5.12621 -0.5
      vertex -18.7794 -7.2375 -0.5
    endloop
  endfacet
  facet normal -0.382683 0.92388 0
    outer loop
      vertex 20.5198 9.04079 -0.5
      vertex 15.4507 6.94108 0.5
      vertex 20.5198 9.04079 0.5
    endloop
  endfacet
  facet normal -0.382683 0.92388 0
    outer loop
      vertex 15.4507 6.94108 0.5
      vertex 20.5198 9.04079 -0.5
      vertex 15.4507 6.94108 -0.5
    endloop
  endfacet
  facet normal 0.382684 -0.923879 0
    outer loop
      vertex -18.2751 -8.111 -0.5
      vertex -13.178 -5.99971 0.5
      vertex -18.2751 -8.111 0.5
    endloop
  endfacet
  facet normal 0.382684 -0.923879 0
    outer loop
      vertex -13.178 -5.99971 0.5
      vertex -18.2751 -8.111 -0.5
      vertex -13.178 -5.99971 -0.5
    endloop
  endfacet
  facet normal 0.382683 -0.92388 0
    outer loop
      vertex 15.6892 5.95747 -0.5
      vertex 20.8298 8.08679 0.5
      vertex 15.6892 5.95747 0.5
    endloop
  endfacet
  facet normal 0.382683 -0.92388 0
    outer loop
      vertex 20.8298 8.08679 0.5
      vertex 15.6892 5.95747 -0.5
      vertex 20.8298 8.08679 -0.5
    endloop
  endfacet
  facet normal 0.382683 0.92388 -0
    outer loop
      vertex -15.4507 6.94108 -0.5
      vertex -20.5198 9.04079 0.5
      vertex -15.4507 6.94108 0.5
    endloop
  endfacet
  facet normal 0.382683 0.92388 0
    outer loop
      vertex -20.5198 9.04079 0.5
      vertex -15.4507 6.94108 -0.5
      vertex -20.5198 9.04079 -0.5
    endloop
  endfacet
  facet normal 0.382684 0.923879 -0
    outer loop
      vertex 18.7794 -7.2375 -0.5
      vertex 13.6823 -5.12621 0.5
      vertex 18.7794 -7.2375 0.5
    endloop
  endfacet
  facet normal 0.382684 0.923879 0
    outer loop
      vertex 13.6823 -5.12621 0.5
      vertex 18.7794 -7.2375 -0.5
      vertex 13.6823 -5.12621 -0.5
    endloop
  endfacet
  facet normal -0.382683 -0.92388 0
    outer loop
      vertex -20.8298 8.08679 -0.5
      vertex -15.6892 5.95747 0.5
      vertex -20.8298 8.08679 0.5
    endloop
  endfacet
  facet normal -0.382683 -0.92388 -0
    outer loop
      vertex -15.6892 5.95747 0.5
      vertex -20.8298 8.08679 -0.5
      vertex -15.6892 5.95747 -0.5
    endloop
  endfacet
  facet normal -0.382684 -0.923879 0
    outer loop
      vertex 13.178 -5.99971 -0.5
      vertex 18.2751 -8.111 0.5
      vertex 13.178 -5.99971 0.5
    endloop
  endfacet
  facet normal -0.382684 -0.923879 -0
    outer loop
      vertex 18.2751 -8.111 0.5
      vertex 13.178 -5.99971 -0.5
      vertex 18.2751 -8.111 -0.5
    endloop
  endfacet
  facet normal 0.707107 0.707107 0
    outer loop
      vertex -12.3535 13.0606 0.5
      vertex -16.2266 16.9337 -0.5
      vertex -16.2266 16.9337 0.5
    endloop
  endfacet
  facet normal 0.707107 0.707107 0
    outer loop
      vertex -16.2266 16.9337 -0.5
      vertex -12.3535 13.0606 0.5
      vertex -12.3535 13.0606 -0.5
    endloop
  endfacet
  facet normal 0.707107 0.707107 0
    outer loop
      vertex 13.98 -13.2728 0.5
      vertex 10.064 -9.35685 -0.5
      vertex 10.064 -9.35685 0.5
    endloop
  endfacet
  facet normal 0.707107 0.707107 0
    outer loop
      vertex 10.064 -9.35685 -0.5
      vertex 13.98 -13.2728 0.5
      vertex 13.98 -13.2728 -0.5
    endloop
  endfacet
  facet normal -0.707107 -0.707107 0
    outer loop
      vertex -13.0055 12.2984 -0.5
      vertex -16.8967 16.1896 0.5
      vertex -16.8967 16.1896 -0.5
    endloop
  endfacet
  facet normal -0.707107 -0.707107 0
    outer loop
      vertex -16.8967 16.1896 0.5
      vertex -13.0055 12.2984 -0.5
      vertex -13.0055 12.2984 0.5
    endloop
  endfacet
  facet normal -0.707107 -0.707107 0
    outer loop
      vertex 13.1609 -13.868 -0.5
      vertex 9.24486 -9.95196 0.5
      vertex 9.24486 -9.95196 -0.5
    endloop
  endfacet
  facet normal -0.707107 -0.707107 0
    outer loop
      vertex 9.24486 -9.95196 0.5
      vertex 13.1609 -13.868 -0.5
      vertex 13.1609 -13.868 0.5
    endloop
  endfacet
  facet normal 0.92388 0.382683 0
    outer loop
      vertex -6.68371 17.4425 0.5
      vertex -8.77765 22.4977 -0.5
      vertex -8.77765 22.4977 0.5
    endloop
  endfacet
  facet normal 0.92388 0.382683 0
    outer loop
      vertex -8.77765 22.4977 -0.5
      vertex -6.68371 17.4425 0.5
      vertex -6.68371 17.4425 -0.5
    endloop
  endfacet
  facet normal 0.92388 0.382683 0
    outer loop
      vertex 7.5932 -17.025 0.5
      vertex 5.49925 -11.9698 -0.5
      vertex 5.49925 -11.9698 0.5
    endloop
  endfacet
  facet normal 0.92388 0.382683 0
    outer loop
      vertex 5.49925 -11.9698 -0.5
      vertex 7.5932 -17.025 0.5
      vertex 7.5932 -17.025 -0.5
    endloop
  endfacet
  facet normal -0.92388 -0.382683 0
    outer loop
      vertex -7.59756 17.0356 -0.5
      vertex -9.69151 22.0908 0.5
      vertex -9.69151 22.0908 -0.5
    endloop
  endfacet
  facet normal -0.92388 -0.382683 0
    outer loop
      vertex -9.69151 22.0908 0.5
      vertex -7.59756 17.0356 -0.5
      vertex -7.59756 17.0356 0.5
    endloop
  endfacet
  facet normal -0.92388 -0.382683 0
    outer loop
      vertex 6.67934 -17.4319 -0.5
      vertex 4.55361 -12.2999 0.5
      vertex 4.55361 -12.2999 -0.5
    endloop
  endfacet
  facet normal -0.92388 -0.382683 0
    outer loop
      vertex 4.55361 -12.2999 0.5
      vertex 6.67934 -17.4319 -0.5
      vertex 6.67934 -17.4319 0.5
    endloop
  endfacet
  facet normal -0.707107 0.707107 0
    outer loop
      vertex -13.98 -13.2728 -0.5
      vertex -10.064 -9.35685 0.5
      vertex -10.064 -9.35685 -0.5
    endloop
  endfacet
  facet normal -0.707107 0.707107 0
    outer loop
      vertex -10.064 -9.35685 0.5
      vertex -13.98 -13.2728 -0.5
      vertex -13.98 -13.2728 0.5
    endloop
  endfacet
  facet normal -0.707107 0.707107 0
    outer loop
      vertex 12.3535 13.0606 -0.5
      vertex 16.2266 16.9337 0.5
      vertex 16.2266 16.9337 -0.5
    endloop
  endfacet
  facet normal -0.707107 0.707107 0
    outer loop
      vertex 16.2266 16.9337 0.5
      vertex 12.3535 13.0606 -0.5
      vertex 12.3535 13.0606 0.5
    endloop
  endfacet
  facet normal 0.707107 -0.707107 0
    outer loop
      vertex -13.1609 -13.868 0.5
      vertex -9.24486 -9.95196 -0.5
      vertex -9.24486 -9.95196 0.5
    endloop
  endfacet
  facet normal 0.707107 -0.707107 0
    outer loop
      vertex -9.24486 -9.95196 -0.5
      vertex -13.1609 -13.868 0.5
      vertex -13.1609 -13.868 -0.5
    endloop
  endfacet
  facet normal 0.707107 -0.707107 0
    outer loop
      vertex 13.0055 12.2984 0.5
      vertex 16.8967 16.1896 -0.5
      vertex 16.8967 16.1896 0.5
    endloop
  endfacet
  facet normal 0.707107 -0.707107 0
    outer loop
      vertex 16.8967 16.1896 -0.5
      vertex 13.0055 12.2984 0.5
      vertex 13.0055 12.2984 -0.5
    endloop
  endfacet
  facet normal -0.92388 0.382683 0
    outer loop
      vertex -7.5932 -17.025 -0.5
      vertex -5.49925 -11.9698 0.5
      vertex -5.49925 -11.9698 -0.5
    endloop
  endfacet
  facet normal -0.92388 0.382683 0
    outer loop
      vertex -5.49925 -11.9698 0.5
      vertex -7.5932 -17.025 -0.5
      vertex -7.5932 -17.025 0.5
    endloop
  endfacet
  facet normal -0.92388 0.382683 0
    outer loop
      vertex 6.68371 17.4425 -0.5
      vertex 8.77765 22.4977 0.5
      vertex 8.77765 22.4977 -0.5
    endloop
  endfacet
  facet normal -0.92388 0.382683 0
    outer loop
      vertex 8.77765 22.4977 0.5
      vertex 6.68371 17.4425 -0.5
      vertex 6.68371 17.4425 0.5
    endloop
  endfacet
  facet normal 0.92388 -0.382683 0
    outer loop
      vertex -6.67934 -17.4319 0.5
      vertex -4.55361 -12.2999 -0.5
      vertex -4.55361 -12.2999 0.5
    endloop
  endfacet
  facet normal 0.92388 -0.382683 0
    outer loop
      vertex -4.55361 -12.2999 -0.5
      vertex -6.67934 -17.4319 0.5
      vertex -6.67934 -17.4319 -0.5
    endloop
  endfacet
  facet normal 0.92388 -0.382683 0
    outer loop
      vertex 7.59757 17.0356 0.5
      vertex 9.69151 22.0908 -0.5
      vertex 9.69151 22.0908 0.5
    endloop
  endfacet
  facet normal 0.92388 -0.382683 0
    outer loop
      vertex 9.69151 22.0908 -0.5
      vertex 7.59757 17.0356 0.5
      vertex 7.59757 17.0356 -0.5
    endloop
  endfacet
endsolid OpenSCAD_Model
