solid OpenSCAD_Model
  facet normal 0.999507 0.0314109 0
    outer loop
      vertex 30 0 20
      vertex 29.9408 1.88372 0
      vertex 29.9408 1.88372 20
    endloop
  endfacet
  facet normal 0.999507 0.0314109 0
    outer loop
      vertex 29.9408 1.88372 0
      vertex 30 0 20
      vertex 30 0 0
    endloop
  endfacet
  facet normal 0.995562 0.0941082 0
    outer loop
      vertex 29.9408 1.88372 20
      vertex 29.7634 3.76 0
      vertex 29.7634 3.76 20
    endloop
  endfacet
  facet normal 0.995562 0.0941082 0
    outer loop
      vertex 29.7634 3.76 0
      vertex 29.9408 1.88372 20
      vertex 29.9408 1.88372 0
    endloop
  endfacet
  facet normal 0.987688 0.156434 0
    outer loop
      vertex 29.7634 3.76 20
      vertex 29.4686 5.62144 0
      vertex 29.4686 5.62144 20
    endloop
  endfacet
  facet normal 0.987688 0.156434 0
    outer loop
      vertex 29.4686 5.62144 0
      vertex 29.7634 3.76 20
      vertex 29.7634 3.76 0
    endloop
  endfacet
  facet normal 0.975917 0.218144 0
    outer loop
      vertex 29.4686 5.62144 20
      vertex 29.0575 7.4607 0
      vertex 29.0575 7.4607 20
    endloop
  endfacet
  facet normal 0.975917 0.218144 0
    outer loop
      vertex 29.0575 7.4607 0
      vertex 29.4686 5.62144 20
      vertex 29.4686 5.62144 0
    endloop
  endfacet
  facet normal 0.960294 0.278991 0
    outer loop
      vertex 29.0575 7.4607 20
      vertex 28.5317 9.27051 0
      vertex 28.5317 9.27051 20
    endloop
  endfacet
  facet normal 0.960294 0.278991 0
    outer loop
      vertex 28.5317 9.27051 0
      vertex 29.0575 7.4607 20
      vertex 29.0575 7.4607 0
    endloop
  endfacet
  facet normal 0.940881 0.338738 0
    outer loop
      vertex 28.5317 9.27051 20
      vertex 27.8933 11.0437 0
      vertex 27.8933 11.0437 20
    endloop
  endfacet
  facet normal 0.940881 0.338738 0
    outer loop
      vertex 27.8933 11.0437 0
      vertex 28.5317 9.27051 20
      vertex 28.5317 9.27051 0
    endloop
  endfacet
  facet normal 0.917754 0.397148 0
    outer loop
      vertex 27.8933 11.0437 20
      vertex 27.1448 12.7734 0
      vertex 27.1448 12.7734 20
    endloop
  endfacet
  facet normal 0.917754 0.397148 0
    outer loop
      vertex 27.1448 12.7734 0
      vertex 27.8933 11.0437 20
      vertex 27.8933 11.0437 0
    endloop
  endfacet
  facet normal 0.891006 0.453991 0
    outer loop
      vertex 27.1448 12.7734 20
      vertex 26.2892 14.4526 0
      vertex 26.2892 14.4526 20
    endloop
  endfacet
  facet normal 0.891006 0.453991 0
    outer loop
      vertex 26.2892 14.4526 0
      vertex 27.1448 12.7734 20
      vertex 27.1448 12.7734 0
    endloop
  endfacet
  facet normal 0.860742 0.509041 0
    outer loop
      vertex 26.2892 14.4526 20
      vertex 25.3298 16.0748 0
      vertex 25.3298 16.0748 20
    endloop
  endfacet
  facet normal 0.860742 0.509041 0
    outer loop
      vertex 25.3298 16.0748 0
      vertex 26.2892 14.4526 20
      vertex 26.2892 14.4526 0
    endloop
  endfacet
  facet normal 0.827081 0.562083 0
    outer loop
      vertex 25.3298 16.0748 20
      vertex 24.2705 17.6336 0
      vertex 24.2705 17.6336 20
    endloop
  endfacet
  facet normal 0.827081 0.562083 0
    outer loop
      vertex 24.2705 17.6336 0
      vertex 25.3298 16.0748 20
      vertex 25.3298 16.0748 0
    endloop
  endfacet
  facet normal 0.790155 0.612908 0
    outer loop
      vertex 24.2705 17.6336 20
      vertex 23.1154 19.1227 0
      vertex 23.1154 19.1227 20
    endloop
  endfacet
  facet normal 0.790155 0.612908 0
    outer loop
      vertex 23.1154 19.1227 0
      vertex 24.2705 17.6336 20
      vertex 24.2705 17.6336 0
    endloop
  endfacet
  facet normal 0.750111 0.661311 0
    outer loop
      vertex 23.1154 19.1227 20
      vertex 21.8691 20.5364 0
      vertex 21.8691 20.5364 20
    endloop
  endfacet
  facet normal 0.750111 0.661311 0
    outer loop
      vertex 21.8691 20.5364 0
      vertex 23.1154 19.1227 20
      vertex 23.1154 19.1227 0
    endloop
  endfacet
  facet normal 0.707107 0.707107 0
    outer loop
      vertex 21.8691 20.5364 20
      vertex 20.5364 21.8691 0
      vertex 20.5364 21.8691 20
    endloop
  endfacet
  facet normal 0.707107 0.707107 0
    outer loop
      vertex 20.5364 21.8691 0
      vertex 21.8691 20.5364 20
      vertex 21.8691 20.5364 0
    endloop
  endfacet
  facet normal 0.661311 0.750111 -0
    outer loop
      vertex 20.5364 21.8691 0
      vertex 19.1227 23.1154 20
      vertex 20.5364 21.8691 20
    endloop
  endfacet
  facet normal 0.661311 0.750111 0
    outer loop
      vertex 19.1227 23.1154 20
      vertex 20.5364 21.8691 0
      vertex 19.1227 23.1154 0
    endloop
  endfacet
  facet normal 0.612908 0.790155 -0
    outer loop
      vertex 19.1227 23.1154 0
      vertex 17.6336 24.2705 20
      vertex 19.1227 23.1154 20
    endloop
  endfacet
  facet normal 0.612908 0.790155 0
    outer loop
      vertex 17.6336 24.2705 20
      vertex 19.1227 23.1154 0
      vertex 17.6336 24.2705 0
    endloop
  endfacet
  facet normal 0.562083 0.827081 -0
    outer loop
      vertex 17.6336 24.2705 0
      vertex 16.0748 25.3298 20
      vertex 17.6336 24.2705 20
    endloop
  endfacet
  facet normal 0.562083 0.827081 0
    outer loop
      vertex 16.0748 25.3298 20
      vertex 17.6336 24.2705 0
      vertex 16.0748 25.3298 0
    endloop
  endfacet
  facet normal 0.509041 0.860742 -0
    outer loop
      vertex 16.0748 25.3298 0
      vertex 14.4526 26.2892 20
      vertex 16.0748 25.3298 20
    endloop
  endfacet
  facet normal 0.509041 0.860742 0
    outer loop
      vertex 14.4526 26.2892 20
      vertex 16.0748 25.3298 0
      vertex 14.4526 26.2892 0
    endloop
  endfacet
  facet normal 0.453991 0.891006 -0
    outer loop
      vertex 14.4526 26.2892 0
      vertex 12.7734 27.1448 20
      vertex 14.4526 26.2892 20
    endloop
  endfacet
  facet normal 0.453991 0.891006 0
    outer loop
      vertex 12.7734 27.1448 20
      vertex 14.4526 26.2892 0
      vertex 12.7734 27.1448 0
    endloop
  endfacet
  facet normal 0.397148 0.917754 -0
    outer loop
      vertex 12.7734 27.1448 0
      vertex 11.0437 27.8933 20
      vertex 12.7734 27.1448 20
    endloop
  endfacet
  facet normal 0.397148 0.917754 0
    outer loop
      vertex 11.0437 27.8933 20
      vertex 12.7734 27.1448 0
      vertex 11.0437 27.8933 0
    endloop
  endfacet
  facet normal 0.338738 0.940881 -0
    outer loop
      vertex 11.0437 27.8933 0
      vertex 9.27051 28.5317 20
      vertex 11.0437 27.8933 20
    endloop
  endfacet
  facet normal 0.338738 0.940881 0
    outer loop
      vertex 9.27051 28.5317 20
      vertex 11.0437 27.8933 0
      vertex 9.27051 28.5317 0
    endloop
  endfacet
  facet normal 0.278991 0.960294 -0
    outer loop
      vertex 9.27051 28.5317 0
      vertex 7.4607 29.0575 20
      vertex 9.27051 28.5317 20
    endloop
  endfacet
  facet normal 0.278991 0.960294 0
    outer loop
      vertex 7.4607 29.0575 20
      vertex 9.27051 28.5317 0
      vertex 7.4607 29.0575 0
    endloop
  endfacet
  facet normal 0.218144 0.975917 -0
    outer loop
      vertex 7.4607 29.0575 0
      vertex 5.62144 29.4686 20
      vertex 7.4607 29.0575 20
    endloop
  endfacet
  facet normal 0.218144 0.975917 0
    outer loop
      vertex 5.62144 29.4686 20
      vertex 7.4607 29.0575 0
      vertex 5.62144 29.4686 0
    endloop
  endfacet
  facet normal 0.156434 0.987688 -0
    outer loop
      vertex 5.62144 29.4686 0
      vertex 3.76 29.7634 20
      vertex 5.62144 29.4686 20
    endloop
  endfacet
  facet normal 0.156434 0.987688 0
    outer loop
      vertex 3.76 29.7634 20
      vertex 5.62144 29.4686 0
      vertex 3.76 29.7634 0
    endloop
  endfacet
  facet normal 0.0941082 0.995562 -0
    outer loop
      vertex 3.76 29.7634 0
      vertex 1.88372 29.9408 20
      vertex 3.76 29.7634 20
    endloop
  endfacet
  facet normal 0.0941082 0.995562 0
    outer loop
      vertex 1.88372 29.9408 20
      vertex 3.76 29.7634 0
      vertex 1.88372 29.9408 0
    endloop
  endfacet
  facet normal 0.0314109 0.999507 -0
    outer loop
      vertex 1.88372 29.9408 0
      vertex 1.83697e-15 30 20
      vertex 1.88372 29.9408 20
    endloop
  endfacet
  facet normal 0.0314109 0.999507 0
    outer loop
      vertex 1.83697e-15 30 20
      vertex 1.88372 29.9408 0
      vertex 1.83697e-15 30 0
    endloop
  endfacet
  facet normal -0.0314109 0.999507 0
    outer loop
      vertex 1.83697e-15 30 0
      vertex -1.88372 29.9408 20
      vertex 1.83697e-15 30 20
    endloop
  endfacet
  facet normal -0.0314109 0.999507 0
    outer loop
      vertex -1.88372 29.9408 20
      vertex 1.83697e-15 30 0
      vertex -1.88372 29.9408 0
    endloop
  endfacet
  facet normal -0.0941082 0.995562 0
    outer loop
      vertex -1.88372 29.9408 0
      vertex -3.76 29.7634 20
      vertex -1.88372 29.9408 20
    endloop
  endfacet
  facet normal -0.0941082 0.995562 0
    outer loop
      vertex -3.76 29.7634 20
      vertex -1.88372 29.9408 0
      vertex -3.76 29.7634 0
    endloop
  endfacet
  facet normal -0.156434 0.987688 0
    outer loop
      vertex -3.76 29.7634 0
      vertex -5.62144 29.4686 20
      vertex -3.76 29.7634 20
    endloop
  endfacet
  facet normal -0.156434 0.987688 0
    outer loop
      vertex -5.62144 29.4686 20
      vertex -3.76 29.7634 0
      vertex -5.62144 29.4686 0
    endloop
  endfacet
  facet normal -0.218144 0.975917 0
    outer loop
      vertex -5.62144 29.4686 0
      vertex -7.4607 29.0575 20
      vertex -5.62144 29.4686 20
    endloop
  endfacet
  facet normal -0.218144 0.975917 0
    outer loop
      vertex -7.4607 29.0575 20
      vertex -5.62144 29.4686 0
      vertex -7.4607 29.0575 0
    endloop
  endfacet
  facet normal -0.278991 0.960294 0
    outer loop
      vertex -7.4607 29.0575 0
      vertex -9.27051 28.5317 20
      vertex -7.4607 29.0575 20
    endloop
  endfacet
  facet normal -0.278991 0.960294 0
    outer loop
      vertex -9.27051 28.5317 20
      vertex -7.4607 29.0575 0
      vertex -9.27051 28.5317 0
    endloop
  endfacet
  facet normal -0.338738 0.940881 0
    outer loop
      vertex -9.27051 28.5317 0
      vertex -11.0437 27.8933 20
      vertex -9.27051 28.5317 20
    endloop
  endfacet
  facet normal -0.338738 0.940881 0
    outer loop
      vertex -11.0437 27.8933 20
      vertex -9.27051 28.5317 0
      vertex -11.0437 27.8933 0
    endloop
  endfacet
  facet normal -0.397148 0.917754 0
    outer loop
      vertex -11.0437 27.8933 0
      vertex -12.7734 27.1448 20
      vertex -11.0437 27.8933 20
    endloop
  endfacet
  facet normal -0.397148 0.917754 0
    outer loop
      vertex -12.7734 27.1448 20
      vertex -11.0437 27.8933 0
      vertex -12.7734 27.1448 0
    endloop
  endfacet
  facet normal -0.453991 0.891006 0
    outer loop
      vertex -12.7734 27.1448 0
      vertex -14.4526 26.2892 20
      vertex -12.7734 27.1448 20
    endloop
  endfacet
  facet normal -0.453991 0.891006 0
    outer loop
      vertex -14.4526 26.2892 20
      vertex -12.7734 27.1448 0
      vertex -14.4526 26.2892 0
    endloop
  endfacet
  facet normal -0.509041 0.860742 0
    outer loop
      vertex -14.4526 26.2892 0
      vertex -16.0748 25.3298 20
      vertex -14.4526 26.2892 20
    endloop
  endfacet
  facet normal -0.509041 0.860742 0
    outer loop
      vertex -16.0748 25.3298 20
      vertex -14.4526 26.2892 0
      vertex -16.0748 25.3298 0
    endloop
  endfacet
  facet normal -0.562083 0.827081 0
    outer loop
      vertex -16.0748 25.3298 0
      vertex -17.6336 24.2705 20
      vertex -16.0748 25.3298 20
    endloop
  endfacet
  facet normal -0.562083 0.827081 0
    outer loop
      vertex -17.6336 24.2705 20
      vertex -16.0748 25.3298 0
      vertex -17.6336 24.2705 0
    endloop
  endfacet
  facet normal -0.612908 0.790155 0
    outer loop
      vertex -17.6336 24.2705 0
      vertex -19.1227 23.1154 20
      vertex -17.6336 24.2705 20
    endloop
  endfacet
  facet normal -0.612908 0.790155 0
    outer loop
      vertex -19.1227 23.1154 20
      vertex -17.6336 24.2705 0
      vertex -19.1227 23.1154 0
    endloop
  endfacet
  facet normal -0.661311 0.750111 0
    outer loop
      vertex -19.1227 23.1154 0
      vertex -20.5364 21.8691 20
      vertex -19.1227 23.1154 20
    endloop
  endfacet
  facet normal -0.661311 0.750111 0
    outer loop
      vertex -20.5364 21.8691 20
      vertex -19.1227 23.1154 0
      vertex -20.5364 21.8691 0
    endloop
  endfacet
  facet normal -0.707107 0.707107 0
    outer loop
      vertex -21.8691 20.5364 0
      vertex -20.5364 21.8691 20
      vertex -20.5364 21.8691 0
    endloop
  endfacet
  facet normal -0.707107 0.707107 0
    outer loop
      vertex -20.5364 21.8691 20
      vertex -21.8691 20.5364 0
      vertex -21.8691 20.5364 20
    endloop
  endfacet
  facet normal -0.750111 0.661311 0
    outer loop
      vertex -23.1154 19.1227 0
      vertex -21.8691 20.5364 20
      vertex -21.8691 20.5364 0
    endloop
  endfacet
  facet normal -0.750111 0.661311 0
    outer loop
      vertex -21.8691 20.5364 20
      vertex -23.1154 19.1227 0
      vertex -23.1154 19.1227 20
    endloop
  endfacet
  facet normal -0.790155 0.612908 0
    outer loop
      vertex -24.2705 17.6336 0
      vertex -23.1154 19.1227 20
      vertex -23.1154 19.1227 0
    endloop
  endfacet
  facet normal -0.790155 0.612908 0
    outer loop
      vertex -23.1154 19.1227 20
      vertex -24.2705 17.6336 0
      vertex -24.2705 17.6336 20
    endloop
  endfacet
  facet normal -0.827081 0.562083 0
    outer loop
      vertex -25.3298 16.0748 0
      vertex -24.2705 17.6336 20
      vertex -24.2705 17.6336 0
    endloop
  endfacet
  facet normal -0.827081 0.562083 0
    outer loop
      vertex -24.2705 17.6336 20
      vertex -25.3298 16.0748 0
      vertex -25.3298 16.0748 20
    endloop
  endfacet
  facet normal -0.860742 0.509041 0
    outer loop
      vertex -26.2892 14.4526 0
      vertex -25.3298 16.0748 20
      vertex -25.3298 16.0748 0
    endloop
  endfacet
  facet normal -0.860742 0.509041 0
    outer loop
      vertex -25.3298 16.0748 20
      vertex -26.2892 14.4526 0
      vertex -26.2892 14.4526 20
    endloop
  endfacet
  facet normal -0.891006 0.453991 0
    outer loop
      vertex -27.1448 12.7734 0
      vertex -26.2892 14.4526 20
      vertex -26.2892 14.4526 0
    endloop
  endfacet
  facet normal -0.891006 0.453991 0
    outer loop
      vertex -26.2892 14.4526 20
      vertex -27.1448 12.7734 0
      vertex -27.1448 12.7734 20
    endloop
  endfacet
  facet normal -0.917754 0.397148 0
    outer loop
      vertex -27.8933 11.0437 0
      vertex -27.1448 12.7734 20
      vertex -27.1448 12.7734 0
    endloop
  endfacet
  facet normal -0.917754 0.397148 0
    outer loop
      vertex -27.1448 12.7734 20
      vertex -27.8933 11.0437 0
      vertex -27.8933 11.0437 20
    endloop
  endfacet
  facet normal -0.940881 0.338738 0
    outer loop
      vertex -28.5317 9.27051 0
      vertex -27.8933 11.0437 20
      vertex -27.8933 11.0437 0
    endloop
  endfacet
  facet normal -0.940881 0.338738 0
    outer loop
      vertex -27.8933 11.0437 20
      vertex -28.5317 9.27051 0
      vertex -28.5317 9.27051 20
    endloop
  endfacet
  facet normal -0.960294 0.278991 0
    outer loop
      vertex -29.0575 7.4607 0
      vertex -28.5317 9.27051 20
      vertex -28.5317 9.27051 0
    endloop
  endfacet
  facet normal -0.960294 0.278991 0
    outer loop
      vertex -28.5317 9.27051 20
      vertex -29.0575 7.4607 0
      vertex -29.0575 7.4607 20
    endloop
  endfacet
  facet normal -0.975917 0.218144 0
    outer loop
      vertex -29.4686 5.62144 0
      vertex -29.0575 7.4607 20
      vertex -29.0575 7.4607 0
    endloop
  endfacet
  facet normal -0.975917 0.218144 0
    outer loop
      vertex -29.0575 7.4607 20
      vertex -29.4686 5.62144 0
      vertex -29.4686 5.62144 20
    endloop
  endfacet
  facet normal -0.987688 0.156434 0
    outer loop
      vertex -29.7634 3.76 0
      vertex -29.4686 5.62144 20
      vertex -29.4686 5.62144 0
    endloop
  endfacet
  facet normal -0.987688 0.156434 0
    outer loop
      vertex -29.4686 5.62144 20
      vertex -29.7634 3.76 0
      vertex -29.7634 3.76 20
    endloop
  endfacet
  facet normal -0.995562 0.0941082 0
    outer loop
      vertex -29.9408 1.88372 0
      vertex -29.7634 3.76 20
      vertex -29.7634 3.76 0
    endloop
  endfacet
  facet normal -0.995562 0.0941082 0
    outer loop
      vertex -29.7634 3.76 20
      vertex -29.9408 1.88372 0
      vertex -29.9408 1.88372 20
    endloop
  endfacet
  facet normal -0.999507 0.0314109 0
    outer loop
      vertex -30 3.67394e-15 0
      vertex -29.9408 1.88372 20
      vertex -29.9408 1.88372 0
    endloop
  endfacet
  facet normal -0.999507 0.0314109 0
    outer loop
      vertex -29.9408 1.88372 20
      vertex -30 3.67394e-15 0
      vertex -30 3.67394e-15 20
    endloop
  endfacet
  facet normal -0.999507 -0.0314109 0
    outer loop
      vertex -29.9408 -1.88372 0
      vertex -30 3.67394e-15 20
      vertex -30 3.67394e-15 0
    endloop
  endfacet
  facet normal -0.999507 -0.0314109 0
    outer loop
      vertex -30 3.67394e-15 20
      vertex -29.9408 -1.88372 0
      vertex -29.9408 -1.88372 20
    endloop
  endfacet
  facet normal -0.995562 -0.0941082 0
    outer loop
      vertex -29.7634 -3.76 0
      vertex -29.9408 -1.88372 20
      vertex -29.9408 -1.88372 0
    endloop
  endfacet
  facet normal -0.995562 -0.0941082 0
    outer loop
      vertex -29.9408 -1.88372 20
      vertex -29.7634 -3.76 0
      vertex -29.7634 -3.76 20
    endloop
  endfacet
  facet normal -0.987688 -0.156434 0
    outer loop
      vertex -29.4686 -5.62144 0
      vertex -29.7634 -3.76 20
      vertex -29.7634 -3.76 0
    endloop
  endfacet
  facet normal -0.987688 -0.156434 0
    outer loop
      vertex -29.7634 -3.76 20
      vertex -29.4686 -5.62144 0
      vertex -29.4686 -5.62144 20
    endloop
  endfacet
  facet normal -0.975917 -0.218144 0
    outer loop
      vertex -29.0575 -7.4607 0
      vertex -29.4686 -5.62144 20
      vertex -29.4686 -5.62144 0
    endloop
  endfacet
  facet normal -0.975917 -0.218144 0
    outer loop
      vertex -29.4686 -5.62144 20
      vertex -29.0575 -7.4607 0
      vertex -29.0575 -7.4607 20
    endloop
  endfacet
  facet normal -0.960294 -0.278991 0
    outer loop
      vertex -28.5317 -9.27051 0
      vertex -29.0575 -7.4607 20
      vertex -29.0575 -7.4607 0
    endloop
  endfacet
  facet normal -0.960294 -0.278991 0
    outer loop
      vertex -29.0575 -7.4607 20
      vertex -28.5317 -9.27051 0
      vertex -28.5317 -9.27051 20
    endloop
  endfacet
  facet normal -0.940881 -0.338738 0
    outer loop
      vertex -27.8933 -11.0437 0
      vertex -28.5317 -9.27051 20
      vertex -28.5317 -9.27051 0
    endloop
  endfacet
  facet normal -0.940881 -0.338738 0
    outer loop
      vertex -28.5317 -9.27051 20
      vertex -27.8933 -11.0437 0
      vertex -27.8933 -11.0437 20
    endloop
  endfacet
  facet normal -0.917754 -0.397148 0
    outer loop
      vertex -27.1448 -12.7734 0
      vertex -27.8933 -11.0437 20
      vertex -27.8933 -11.0437 0
    endloop
  endfacet
  facet normal -0.917754 -0.397148 0
    outer loop
      vertex -27.8933 -11.0437 20
      vertex -27.1448 -12.7734 0
      vertex -27.1448 -12.7734 20
    endloop
  endfacet
  facet normal -0.891006 -0.453991 0
    outer loop
      vertex -26.2892 -14.4526 0
      vertex -27.1448 -12.7734 20
      vertex -27.1448 -12.7734 0
    endloop
  endfacet
  facet normal -0.891006 -0.453991 0
    outer loop
      vertex -27.1448 -12.7734 20
      vertex -26.2892 -14.4526 0
      vertex -26.2892 -14.4526 20
    endloop
  endfacet
  facet normal -0.860742 -0.509041 0
    outer loop
      vertex -25.3298 -16.0748 0
      vertex -26.2892 -14.4526 20
      vertex -26.2892 -14.4526 0
    endloop
  endfacet
  facet normal -0.860742 -0.509041 0
    outer loop
      vertex -26.2892 -14.4526 20
      vertex -25.3298 -16.0748 0
      vertex -25.3298 -16.0748 20
    endloop
  endfacet
  facet normal -0.827081 -0.562083 0
    outer loop
      vertex -24.2705 -17.6336 0
      vertex -25.3298 -16.0748 20
      vertex -25.3298 -16.0748 0
    endloop
  endfacet
  facet normal -0.827081 -0.562083 0
    outer loop
      vertex -25.3298 -16.0748 20
      vertex -24.2705 -17.6336 0
      vertex -24.2705 -17.6336 20
    endloop
  endfacet
  facet normal -0.790155 -0.612908 0
    outer loop
      vertex -23.1154 -19.1227 0
      vertex -24.2705 -17.6336 20
      vertex -24.2705 -17.6336 0
    endloop
  endfacet
  facet normal -0.790155 -0.612908 0
    outer loop
      vertex -24.2705 -17.6336 20
      vertex -23.1154 -19.1227 0
      vertex -23.1154 -19.1227 20
    endloop
  endfacet
  facet normal -0.750111 -0.661311 0
    outer loop
      vertex -21.8691 -20.5364 0
      vertex -23.1154 -19.1227 20
      vertex -23.1154 -19.1227 0
    endloop
  endfacet
  facet normal -0.750111 -0.661311 0
    outer loop
      vertex -23.1154 -19.1227 20
      vertex -21.8691 -20.5364 0
      vertex -21.8691 -20.5364 20
    endloop
  endfacet
  facet normal -0.707107 -0.707107 0
    outer loop
      vertex -20.5364 -21.8691 0
      vertex -21.8691 -20.5364 20
      vertex -21.8691 -20.5364 0
    endloop
  endfacet
  facet normal -0.707107 -0.707107 0
    outer loop
      vertex -21.8691 -20.5364 20
      vertex -20.5364 -21.8691 0
      vertex -20.5364 -21.8691 20
    endloop
  endfacet
  facet normal -0.661311 -0.750111 0
    outer loop
      vertex -20.5364 -21.8691 0
      vertex -19.1227 -23.1154 20
      vertex -20.5364 -21.8691 20
    endloop
  endfacet
  facet normal -0.661311 -0.750111 -0
    outer loop
      vertex -19.1227 -23.1154 20
      vertex -20.5364 -21.8691 0
      vertex -19.1227 -23.1154 0
    endloop
  endfacet
  facet normal -0.612908 -0.790155 0
    outer loop
      vertex -19.1227 -23.1154 0
      vertex -17.6336 -24.2705 20
      vertex -19.1227 -23.1154 20
    endloop
  endfacet
  facet normal -0.612908 -0.790155 -0
    outer loop
      vertex -17.6336 -24.2705 20
      vertex -19.1227 -23.1154 0
      vertex -17.6336 -24.2705 0
    endloop
  endfacet
  facet normal -0.562083 -0.827081 0
    outer loop
      vertex -17.6336 -24.2705 0
      vertex -16.0748 -25.3298 20
      vertex -17.6336 -24.2705 20
    endloop
  endfacet
  facet normal -0.562083 -0.827081 -0
    outer loop
      vertex -16.0748 -25.3298 20
      vertex -17.6336 -24.2705 0
      vertex -16.0748 -25.3298 0
    endloop
  endfacet
  facet normal -0.509041 -0.860742 0
    outer loop
      vertex -16.0748 -25.3298 0
      vertex -14.4526 -26.2892 20
      vertex -16.0748 -25.3298 20
    endloop
  endfacet
  facet normal -0.509041 -0.860742 -0
    outer loop
      vertex -14.4526 -26.2892 20
      vertex -16.0748 -25.3298 0
      vertex -14.4526 -26.2892 0
    endloop
  endfacet
  facet normal -0.453991 -0.891006 0
    outer loop
      vertex -14.4526 -26.2892 0
      vertex -12.7734 -27.1448 20
      vertex -14.4526 -26.2892 20
    endloop
  endfacet
  facet normal -0.453991 -0.891006 -0
    outer loop
      vertex -12.7734 -27.1448 20
      vertex -14.4526 -26.2892 0
      vertex -12.7734 -27.1448 0
    endloop
  endfacet
  facet normal -0.397148 -0.917754 0
    outer loop
      vertex -12.7734 -27.1448 0
      vertex -11.0437 -27.8933 20
      vertex -12.7734 -27.1448 20
    endloop
  endfacet
  facet normal -0.397148 -0.917754 -0
    outer loop
      vertex -11.0437 -27.8933 20
      vertex -12.7734 -27.1448 0
      vertex -11.0437 -27.8933 0
    endloop
  endfacet
  facet normal -0.338738 -0.940881 0
    outer loop
      vertex -11.0437 -27.8933 0
      vertex -9.27051 -28.5317 20
      vertex -11.0437 -27.8933 20
    endloop
  endfacet
  facet normal -0.338738 -0.940881 -0
    outer loop
      vertex -9.27051 -28.5317 20
      vertex -11.0437 -27.8933 0
      vertex -9.27051 -28.5317 0
    endloop
  endfacet
  facet normal -0.278991 -0.960294 0
    outer loop
      vertex -9.27051 -28.5317 0
      vertex -7.4607 -29.0575 20
      vertex -9.27051 -28.5317 20
    endloop
  endfacet
  facet normal -0.278991 -0.960294 -0
    outer loop
      vertex -7.4607 -29.0575 20
      vertex -9.27051 -28.5317 0
      vertex -7.4607 -29.0575 0
    endloop
  endfacet
  facet normal -0.218144 -0.975917 0
    outer loop
      vertex -7.4607 -29.0575 0
      vertex -5.62144 -29.4686 20
      vertex -7.4607 -29.0575 20
    endloop
  endfacet
  facet normal -0.218144 -0.975917 -0
    outer loop
      vertex -5.62144 -29.4686 20
      vertex -7.4607 -29.0575 0
      vertex -5.62144 -29.4686 0
    endloop
  endfacet
  facet normal -0.156434 -0.987688 0
    outer loop
      vertex -5.62144 -29.4686 0
      vertex -3.76 -29.7634 20
      vertex -5.62144 -29.4686 20
    endloop
  endfacet
  facet normal -0.156434 -0.987688 -0
    outer loop
      vertex -3.76 -29.7634 20
      vertex -5.62144 -29.4686 0
      vertex -3.76 -29.7634 0
    endloop
  endfacet
  facet normal -0.0941082 -0.995562 0
    outer loop
      vertex -3.76 -29.7634 0
      vertex -1.88372 -29.9408 20
      vertex -3.76 -29.7634 20
    endloop
  endfacet
  facet normal -0.0941082 -0.995562 -0
    outer loop
      vertex -1.88372 -29.9408 20
      vertex -3.76 -29.7634 0
      vertex -1.88372 -29.9408 0
    endloop
  endfacet
  facet normal -0.0314109 -0.999507 0
    outer loop
      vertex -1.88372 -29.9408 0
      vertex -5.51091e-15 -30 20
      vertex -1.88372 -29.9408 20
    endloop
  endfacet
  facet normal -0.0314109 -0.999507 -0
    outer loop
      vertex -5.51091e-15 -30 20
      vertex -1.88372 -29.9408 0
      vertex -5.51091e-15 -30 0
    endloop
  endfacet
  facet normal 0.0314109 -0.999507 0
    outer loop
      vertex -5.51091e-15 -30 0
      vertex 1.88372 -29.9408 20
      vertex -5.51091e-15 -30 20
    endloop
  endfacet
  facet normal 0.0314109 -0.999507 0
    outer loop
      vertex 1.88372 -29.9408 20
      vertex -5.51091e-15 -30 0
      vertex 1.88372 -29.9408 0
    endloop
  endfacet
  facet normal 0.0941082 -0.995562 0
    outer loop
      vertex 1.88372 -29.9408 0
      vertex 3.76 -29.7634 20
      vertex 1.88372 -29.9408 20
    endloop
  endfacet
  facet normal 0.0941082 -0.995562 0
    outer loop
      vertex 3.76 -29.7634 20
      vertex 1.88372 -29.9408 0
      vertex 3.76 -29.7634 0
    endloop
  endfacet
  facet normal 0.156434 -0.987688 0
    outer loop
      vertex 3.76 -29.7634 0
      vertex 5.62144 -29.4686 20
      vertex 3.76 -29.7634 20
    endloop
  endfacet
  facet normal 0.156434 -0.987688 0
    outer loop
      vertex 5.62144 -29.4686 20
      vertex 3.76 -29.7634 0
      vertex 5.62144 -29.4686 0
    endloop
  endfacet
  facet normal 0.218144 -0.975917 0
    outer loop
      vertex 5.62144 -29.4686 0
      vertex 7.4607 -29.0575 20
      vertex 5.62144 -29.4686 20
    endloop
  endfacet
  facet normal 0.218144 -0.975917 0
    outer loop
      vertex 7.4607 -29.0575 20
      vertex 5.62144 -29.4686 0
      vertex 7.4607 -29.0575 0
    endloop
  endfacet
  facet normal 0.278991 -0.960294 0
    outer loop
      vertex 7.4607 -29.0575 0
      vertex 9.27051 -28.5317 20
      vertex 7.4607 -29.0575 20
    endloop
  endfacet
  facet normal 0.278991 -0.960294 0
    outer loop
      vertex 9.27051 -28.5317 20
      vertex 7.4607 -29.0575 0
      vertex 9.27051 -28.5317 0
    endloop
  endfacet
  facet normal 0.338738 -0.940881 0
    outer loop
      vertex 9.27051 -28.5317 0
      vertex 11.0437 -27.8933 20
      vertex 9.27051 -28.5317 20
    endloop
  endfacet
  facet normal 0.338738 -0.940881 0
    outer loop
      vertex 11.0437 -27.8933 20
      vertex 9.27051 -28.5317 0
      vertex 11.0437 -27.8933 0
    endloop
  endfacet
  facet normal 0.397148 -0.917754 0
    outer loop
      vertex 11.0437 -27.8933 0
      vertex 12.7734 -27.1448 20
      vertex 11.0437 -27.8933 20
    endloop
  endfacet
  facet normal 0.397148 -0.917754 0
    outer loop
      vertex 12.7734 -27.1448 20
      vertex 11.0437 -27.8933 0
      vertex 12.7734 -27.1448 0
    endloop
  endfacet
  facet normal 0.453991 -0.891006 0
    outer loop
      vertex 12.7734 -27.1448 0
      vertex 14.4526 -26.2892 20
      vertex 12.7734 -27.1448 20
    endloop
  endfacet
  facet normal 0.453991 -0.891006 0
    outer loop
      vertex 14.4526 -26.2892 20
      vertex 12.7734 -27.1448 0
      vertex 14.4526 -26.2892 0
    endloop
  endfacet
  facet normal 0.509041 -0.860742 0
    outer loop
      vertex 14.4526 -26.2892 0
      vertex 16.0748 -25.3298 20
      vertex 14.4526 -26.2892 20
    endloop
  endfacet
  facet normal 0.509041 -0.860742 0
    outer loop
      vertex 16.0748 -25.3298 20
      vertex 14.4526 -26.2892 0
      vertex 16.0748 -25.3298 0
    endloop
  endfacet
  facet normal 0.562083 -0.827081 0
    outer loop
      vertex 16.0748 -25.3298 0
      vertex 17.6336 -24.2705 20
      vertex 16.0748 -25.3298 20
    endloop
  endfacet
  facet normal 0.562083 -0.827081 0
    outer loop
      vertex 17.6336 -24.2705 20
      vertex 16.0748 -25.3298 0
      vertex 17.6336 -24.2705 0
    endloop
  endfacet
  facet normal 0.612908 -0.790155 0
    outer loop
      vertex 17.6336 -24.2705 0
      vertex 19.1227 -23.1154 20
      vertex 17.6336 -24.2705 20
    endloop
  endfacet
  facet normal 0.612908 -0.790155 0
    outer loop
      vertex 19.1227 -23.1154 20
      vertex 17.6336 -24.2705 0
      vertex 19.1227 -23.1154 0
    endloop
  endfacet
  facet normal 0.661311 -0.750111 0
    outer loop
      vertex 19.1227 -23.1154 0
      vertex 20.5364 -21.8691 20
      vertex 19.1227 -23.1154 20
    endloop
  endfacet
  facet normal 0.661311 -0.750111 0
    outer loop
      vertex 20.5364 -21.8691 20
      vertex 19.1227 -23.1154 0
      vertex 20.5364 -21.8691 0
    endloop
  endfacet
  facet normal 0.707107 -0.707107 0
    outer loop
      vertex 20.5364 -21.8691 20
      vertex 21.8691 -20.5364 0
      vertex 21.8691 -20.5364 20
    endloop
  endfacet
  facet normal 0.707107 -0.707107 0
    outer loop
      vertex 21.8691 -20.5364 0
      vertex 20.5364 -21.8691 20
      vertex 20.5364 -21.8691 0
    endloop
  endfacet
  facet normal 0.750111 -0.661311 0
    outer loop
      vertex 21.8691 -20.5364 20
      vertex 23.1154 -19.1227 0
      vertex 23.1154 -19.1227 20
    endloop
  endfacet
  facet normal 0.750111 -0.661311 0
    outer loop
      vertex 23.1154 -19.1227 0
      vertex 21.8691 -20.5364 20
      vertex 21.8691 -20.5364 0
    endloop
  endfacet
  facet normal 0.790155 -0.612908 0
    outer loop
      vertex 23.1154 -19.1227 20
      vertex 24.2705 -17.6336 0
      vertex 24.2705 -17.6336 20
    endloop
  endfacet
  facet normal 0.790155 -0.612908 0
    outer loop
      vertex 24.2705 -17.6336 0
      vertex 23.1154 -19.1227 20
      vertex 23.1154 -19.1227 0
    endloop
  endfacet
  facet normal 0.827081 -0.562083 0
    outer loop
      vertex 24.2705 -17.6336 20
      vertex 25.3298 -16.0748 0
      vertex 25.3298 -16.0748 20
    endloop
  endfacet
  facet normal 0.827081 -0.562083 0
    outer loop
      vertex 25.3298 -16.0748 0
      vertex 24.2705 -17.6336 20
      vertex 24.2705 -17.6336 0
    endloop
  endfacet
  facet normal 0.860742 -0.509041 0
    outer loop
      vertex 25.3298 -16.0748 20
      vertex 26.2892 -14.4526 0
      vertex 26.2892 -14.4526 20
    endloop
  endfacet
  facet normal 0.860742 -0.509041 0
    outer loop
      vertex 26.2892 -14.4526 0
      vertex 25.3298 -16.0748 20
      vertex 25.3298 -16.0748 0
    endloop
  endfacet
  facet normal 0.891006 -0.453991 0
    outer loop
      vertex 26.2892 -14.4526 20
      vertex 27.1448 -12.7734 0
      vertex 27.1448 -12.7734 20
    endloop
  endfacet
  facet normal 0.891006 -0.453991 0
    outer loop
      vertex 27.1448 -12.7734 0
      vertex 26.2892 -14.4526 20
      vertex 26.2892 -14.4526 0
    endloop
  endfacet
  facet normal 0.917754 -0.397148 0
    outer loop
      vertex 27.1448 -12.7734 20
      vertex 27.8933 -11.0437 0
      vertex 27.8933 -11.0437 20
    endloop
  endfacet
  facet normal 0.917754 -0.397148 0
    outer loop
      vertex 27.8933 -11.0437 0
      vertex 27.1448 -12.7734 20
      vertex 27.1448 -12.7734 0
    endloop
  endfacet
  facet normal 0.940881 -0.338738 0
    outer loop
      vertex 27.8933 -11.0437 20
      vertex 28.5317 -9.27051 0
      vertex 28.5317 -9.27051 20
    endloop
  endfacet
  facet normal 0.940881 -0.338738 0
    outer loop
      vertex 28.5317 -9.27051 0
      vertex 27.8933 -11.0437 20
      vertex 27.8933 -11.0437 0
    endloop
  endfacet
  facet normal 0.960294 -0.278991 0
    outer loop
      vertex 28.5317 -9.27051 20
      vertex 29.0575 -7.4607 0
      vertex 29.0575 -7.4607 20
    endloop
  endfacet
  facet normal 0.960294 -0.278991 0
    outer loop
      vertex 29.0575 -7.4607 0
      vertex 28.5317 -9.27051 20
      vertex 28.5317 -9.27051 0
    endloop
  endfacet
  facet normal 0.975917 -0.218144 0
    outer loop
      vertex 29.0575 -7.4607 20
      vertex 29.4686 -5.62144 0
      vertex 29.4686 -5.62144 20
    endloop
  endfacet
  facet normal 0.975917 -0.218144 0
    outer loop
      vertex 29.4686 -5.62144 0
      vertex 29.0575 -7.4607 20
      vertex 29.0575 -7.4607 0
    endloop
  endfacet
  facet normal 0.987688 -0.156434 0
    outer loop
      vertex 29.4686 -5.62144 20
      vertex 29.7634 -3.76 0
      vertex 29.7634 -3.76 20
    endloop
  endfacet
  facet normal 0.987688 -0.156434 0
    outer loop
      vertex 29.7634 -3.76 0
      vertex 29.4686 -5.62144 20
      vertex 29.4686 -5.62144 0
    endloop
  endfacet
  facet normal 0.995562 -0.0941082 0
    outer loop
      vertex 29.7634 -3.76 20
      vertex 29.9408 -1.88372 0
      vertex 29.9408 -1.88372 20
    endloop
  endfacet
  facet normal 0.995562 -0.0941082 0
    outer loop
      vertex 29.9408 -1.88372 0
      vertex 29.7634 -3.76 20
      vertex 29.7634 -3.76 0
    endloop
  endfacet
  facet normal 0.999507 -0.0314109 0
    outer loop
      vertex 29.9408 -1.88372 20
      vertex 30 0 0
      vertex 30 0 20
    endloop
  endfacet
  facet normal 0.999507 -0.0314109 0
    outer loop
      vertex 30 0 0
      vertex 29.9408 -1.88372 20
      vertex 29.9408 -1.88372 0
    endloop
  endfacet
  facet normal 0 0 -1
    outer loop
      vertex 29.9408 -1.88372 0
      vertex 29.9408 1.88372 0
      vertex 30 0 0
    endloop
  endfacet
  facet normal 0 0 -1
    outer loop
      vertex 29.7634 -3.76 0
      vertex 29.9408 1.88372 0
      vertex 29.9408 -1.88372 0
    endloop
  endfacet
  facet normal 0 0 -1
    outer loop
      vertex 29.7634 -3.76 0
      vertex 29.7634 3.76 0
      vertex 29.9408 1.88372 0
    endloop
  endfacet
  facet normal 0 0 -1
    outer loop
      vertex 29.4686 -5.62144 0
      vertex 29.7634 3.76 0
      vertex 29.7634 -3.76 0
    endloop
  endfacet
  facet normal 0 0 -1
    outer loop
      vertex 29.4686 -5.62144 0
      vertex 29.4686 5.62144 0
      vertex 29.7634 3.76 0
    endloop
  endfacet
  facet normal 0 0 -1
    outer loop
      vertex 29.0575 -7.4607 0
      vertex 29.4686 5.62144 0
      vertex 29.4686 -5.62144 0
    endloop
  endfacet
  facet normal 0 0 -1
    outer loop
      vertex 29.0575 -7.4607 0
      vertex 29.0575 7.4607 0
      vertex 29.4686 5.62144 0
    endloop
  endfacet
  facet normal 0 0 -1
    outer loop
      vertex 28.5317 -9.27051 0
      vertex 29.0575 7.4607 0
      vertex 29.0575 -7.4607 0
    endloop
  endfacet
  facet normal 0 0 -1
    outer loop
      vertex 28.5317 -9.27051 0
      vertex 28.5317 9.27051 0
      vertex 29.0575 7.4607 0
    endloop
  endfacet
  facet normal 0 0 -1
    outer loop
      vertex 27.8933 -11.0437 0
      vertex 28.5317 9.27051 0
      vertex 28.5317 -9.27051 0
    endloop
  endfacet
  facet normal 0 0 -1
    outer loop
      vertex 27.8933 -11.0437 0
      vertex 27.8933 11.0437 0
      vertex 28.5317 9.27051 0
    endloop
  endfacet
  facet normal 0 0 -1
    outer loop
      vertex 27.1448 -12.7734 0
      vertex 27.8933 11.0437 0
      vertex 27.8933 -11.0437 0
    endloop
  endfacet
  facet normal 0 0 -1
    outer loop
      vertex 27.1448 -12.7734 0
      vertex 27.1448 12.7734 0
      vertex 27.8933 11.0437 0
    endloop
  endfacet
  facet normal 0 0 -1
    outer loop
      vertex 26.2892 -14.4526 0
      vertex 27.1448 12.7734 0
      vertex 27.1448 -12.7734 0
    endloop
  endfacet
  facet normal 0 0 -1
    outer loop
      vertex 26.2892 -14.4526 0
      vertex 26.2892 14.4526 0
      vertex 27.1448 12.7734 0
    endloop
  endfacet
  facet normal 0 0 -1
    outer loop
      vertex 25.3298 -16.0748 0
      vertex 26.2892 14.4526 0
      vertex 26.2892 -14.4526 0
    endloop
  endfacet
  facet normal 0 0 -1
    outer loop
      vertex 25.3298 -16.0748 0
      vertex 25.3298 16.0748 0
      vertex 26.2892 14.4526 0
    endloop
  endfacet
  facet normal 0 0 -1
    outer loop
      vertex 24.2705 -17.6336 0
      vertex 25.3298 16.0748 0
      vertex 25.3298 -16.0748 0
    endloop
  endfacet
  facet normal 0 0 -1
    outer loop
      vertex 24.2705 -17.6336 0
      vertex 24.2705 17.6336 0
      vertex 25.3298 16.0748 0
    endloop
  endfacet
  facet normal 0 0 -1
    outer loop
      vertex 23.1154 -19.1227 0
      vertex 24.2705 17.6336 0
      vertex 24.2705 -17.6336 0
    endloop
  endfacet
  facet normal 0 0 -1
    outer loop
      vertex 23.1154 -19.1227 0
      vertex 23.1154 19.1227 0
      vertex 24.2705 17.6336 0
    endloop
  endfacet
  facet normal 0 0 -1
    outer loop
      vertex 21.8691 -20.5364 0
      vertex 23.1154 19.1227 0
      vertex 23.1154 -19.1227 0
    endloop
  endfacet
  facet normal 0 0 -1
    outer loop
      vertex 21.8691 -20.5364 0
      vertex 21.8691 20.5364 0
      vertex 23.1154 19.1227 0
    endloop
  endfacet
  facet normal 0 0 -1
    outer loop
      vertex 20.5364 -21.8691 0
      vertex 21.8691 20.5364 0
      vertex 21.8691 -20.5364 0
    endloop
  endfacet
  facet normal 0 0 -1
    outer loop
      vertex 20.5364 -21.8691 0
      vertex 20.5364 21.8691 0
      vertex 21.8691 20.5364 0
    endloop
  endfacet
  facet normal 0 0 -1
    outer loop
      vertex 19.1227 -23.1154 0
      vertex 20.5364 21.8691 0
      vertex 20.5364 -21.8691 0
    endloop
  endfacet
  facet normal 0 0 -1
    outer loop
      vertex 19.1227 -23.1154 0
      vertex 19.1227 23.1154 0
      vertex 20.5364 21.8691 0
    endloop
  endfacet
  facet normal 0 0 -1
    outer loop
      vertex 17.6336 -24.2705 0
      vertex 19.1227 23.1154 0
      vertex 19.1227 -23.1154 0
    endloop
  endfacet
  facet normal 0 0 -1
    outer loop
      vertex 17.6336 -24.2705 0
      vertex 17.6336 24.2705 0
      vertex 19.1227 23.1154 0
    endloop
  endfacet
  facet normal 0 0 -1
    outer loop
      vertex 16.0748 -25.3298 0
      vertex 17.6336 24.2705 0
      vertex 17.6336 -24.2705 0
    endloop
  endfacet
  facet normal 0 0 -1
    outer loop
      vertex 16.0748 -25.3298 0
      vertex 16.0748 25.3298 0
      vertex 17.6336 24.2705 0
    endloop
  endfacet
  facet normal 0 0 -1
    outer loop
      vertex 14.4526 -26.2892 0
      vertex 16.0748 25.3298 0
      vertex 16.0748 -25.3298 0
    endloop
  endfacet
  facet normal 0 0 -1
    outer loop
      vertex 14.4526 -26.2892 0
      vertex 14.4526 26.2892 0
      vertex 16.0748 25.3298 0
    endloop
  endfacet
  facet normal 0 0 -1
    outer loop
      vertex 12.7734 -27.1448 0
      vertex 14.4526 26.2892 0
      vertex 14.4526 -26.2892 0
    endloop
  endfacet
  facet normal 0 0 -1
    outer loop
      vertex 12.7734 -27.1448 0
      vertex 12.7734 27.1448 0
      vertex 14.4526 26.2892 0
    endloop
  endfacet
  facet normal 0 0 -1
    outer loop
      vertex 11.0437 -27.8933 0
      vertex 12.7734 27.1448 0
      vertex 12.7734 -27.1448 0
    endloop
  endfacet
  facet normal 0 0 -1
    outer loop
      vertex 11.0437 -27.8933 0
      vertex 11.0437 27.8933 0
      vertex 12.7734 27.1448 0
    endloop
  endfacet
  facet normal 0 0 -1
    outer loop
      vertex 9.27051 -28.5317 0
      vertex 11.0437 27.8933 0
      vertex 11.0437 -27.8933 0
    endloop
  endfacet
  facet normal 0 0 -1
    outer loop
      vertex 9.27051 -28.5317 0
      vertex 9.27051 28.5317 0
      vertex 11.0437 27.8933 0
    endloop
  endfacet
  facet normal 0 0 -1
    outer loop
      vertex 7.4607 -29.0575 0
      vertex 9.27051 28.5317 0
      vertex 9.27051 -28.5317 0
    endloop
  endfacet
  facet normal 0 0 -1
    outer loop
      vertex 7.4607 -29.0575 0
      vertex 7.4607 29.0575 0
      vertex 9.27051 28.5317 0
    endloop
  endfacet
  facet normal 0 0 -1
    outer loop
      vertex 5.62144 -29.4686 0
      vertex 7.4607 29.0575 0
      vertex 7.4607 -29.0575 0
    endloop
  endfacet
  facet normal 0 0 -1
    outer loop
      vertex 5.62144 -29.4686 0
      vertex 5.62144 29.4686 0
      vertex 7.4607 29.0575 0
    endloop
  endfacet
  facet normal 0 0 -1
    outer loop
      vertex 3.76 -29.7634 0
      vertex 5.62144 29.4686 0
      vertex 5.62144 -29.4686 0
    endloop
  endfacet
  facet normal 0 0 -1
    outer loop
      vertex 3.76 -29.7634 0
      vertex 3.76 29.7634 0
      vertex 5.62144 29.4686 0
    endloop
  endfacet
  facet normal 0 0 -1
    outer loop
      vertex 1.88372 -29.9408 0
      vertex 3.76 29.7634 0
      vertex 3.76 -29.7634 0
    endloop
  endfacet
  facet normal 0 0 -1
    outer loop
      vertex 1.88372 -29.9408 0
      vertex 1.88372 29.9408 0
      vertex 3.76 29.7634 0
    endloop
  endfacet
  facet normal 0 0 -1
    outer loop
      vertex 1.88372 -29.9408 0
      vertex 1.83697e-15 30 0
      vertex 1.88372 29.9408 0
    endloop
  endfacet
  facet normal 0 0 -1
    outer loop
      vertex -5.51091e-15 -30 0
      vertex 1.83697e-15 30 0
      vertex 1.88372 -29.9408 0
    endloop
  endfacet
  facet normal 0 0 -1
    outer loop
      vertex -1.88372 -29.9408 0
      vertex 1.83697e-15 30 0
      vertex -5.51091e-15 -30 0
    endloop
  endfacet
  facet normal 0 0 -1
    outer loop
      vertex -1.88372 -29.9408 0
      vertex -1.88372 29.9408 0
      vertex 1.83697e-15 30 0
    endloop
  endfacet
  facet normal 0 0 -1
    outer loop
      vertex -3.76 -29.7634 0
      vertex -1.88372 29.9408 0
      vertex -1.88372 -29.9408 0
    endloop
  endfacet
  facet normal 0 0 -1
    outer loop
      vertex -3.76 -29.7634 0
      vertex -3.76 29.7634 0
      vertex -1.88372 29.9408 0
    endloop
  endfacet
  facet normal 0 0 -1
    outer loop
      vertex -5.62144 -29.4686 0
      vertex -3.76 29.7634 0
      vertex -3.76 -29.7634 0
    endloop
  endfacet
  facet normal 0 0 -1
    outer loop
      vertex -5.62144 -29.4686 0
      vertex -5.62144 29.4686 0
      vertex -3.76 29.7634 0
    endloop
  endfacet
  facet normal 0 0 -1
    outer loop
      vertex -7.4607 -29.0575 0
      vertex -5.62144 29.4686 0
      vertex -5.62144 -29.4686 0
    endloop
  endfacet
  facet normal 0 0 -1
    outer loop
      vertex -7.4607 -29.0575 0
      vertex -7.4607 29.0575 0
      vertex -5.62144 29.4686 0
    endloop
  endfacet
  facet normal 0 0 -1
    outer loop
      vertex -9.27051 -28.5317 0
      vertex -7.4607 29.0575 0
      vertex -7.4607 -29.0575 0
    endloop
  endfacet
  facet normal 0 0 -1
    outer loop
      vertex -9.27051 -28.5317 0
      vertex -9.27051 28.5317 0
      vertex -7.4607 29.0575 0
    endloop
  endfacet
  facet normal 0 0 -1
    outer loop
      vertex -11.0437 -27.8933 0
      vertex -9.27051 28.5317 0
      vertex -9.27051 -28.5317 0
    endloop
  endfacet
  facet normal 0 0 -1
    outer loop
      vertex -11.0437 -27.8933 0
      vertex -11.0437 27.8933 0
      vertex -9.27051 28.5317 0
    endloop
  endfacet
  facet normal 0 0 -1
    outer loop
      vertex -12.7734 -27.1448 0
      vertex -11.0437 27.8933 0
      vertex -11.0437 -27.8933 0
    endloop
  endfacet
  facet normal 0 0 -1
    outer loop
      vertex -12.7734 -27.1448 0
      vertex -12.7734 27.1448 0
      vertex -11.0437 27.8933 0
    endloop
  endfacet
  facet normal 0 0 -1
    outer loop
      vertex -14.4526 -26.2892 0
      vertex -12.7734 27.1448 0
      vertex -12.7734 -27.1448 0
    endloop
  endfacet
  facet normal 0 0 -1
    outer loop
      vertex -14.4526 -26.2892 0
      vertex -14.4526 26.2892 0
      vertex -12.7734 27.1448 0
    endloop
  endfacet
  facet normal 0 0 -1
    outer loop
      vertex -16.0748 -25.3298 0
      vertex -14.4526 26.2892 0
      vertex -14.4526 -26.2892 0
    endloop
  endfacet
  facet normal 0 0 -1
    outer loop
      vertex -16.0748 -25.3298 0
      vertex -16.0748 25.3298 0
      vertex -14.4526 26.2892 0
    endloop
  endfacet
  facet normal 0 0 -1
    outer loop
      vertex -17.6336 -24.2705 0
      vertex -16.0748 25.3298 0
      vertex -16.0748 -25.3298 0
    endloop
  endfacet
  facet normal 0 0 -1
    outer loop
      vertex -17.6336 -24.2705 0
      vertex -17.6336 24.2705 0
      vertex -16.0748 25.3298 0
    endloop
  endfacet
  facet normal 0 0 -1
    outer loop
      vertex -19.1227 -23.1154 0
      vertex -17.6336 24.2705 0
      vertex -17.6336 -24.2705 0
    endloop
  endfacet
  facet normal 0 0 -1
    outer loop
      vertex -19.1227 -23.1154 0
      vertex -19.1227 23.1154 0
      vertex -17.6336 24.2705 0
    endloop
  endfacet
  facet normal 0 0 -1
    outer loop
      vertex -20.5364 -21.8691 0
      vertex -19.1227 23.1154 0
      vertex -19.1227 -23.1154 0
    endloop
  endfacet
  facet normal 0 0 -1
    outer loop
      vertex -20.5364 -21.8691 0
      vertex -20.5364 21.8691 0
      vertex -19.1227 23.1154 0
    endloop
  endfacet
  facet normal 0 0 -1
    outer loop
      vertex -21.8691 -20.5364 0
      vertex -20.5364 21.8691 0
      vertex -20.5364 -21.8691 0
    endloop
  endfacet
  facet normal 0 0 -1
    outer loop
      vertex -21.8691 -20.5364 0
      vertex -21.8691 20.5364 0
      vertex -20.5364 21.8691 0
    endloop
  endfacet
  facet normal 0 0 -1
    outer loop
      vertex -23.1154 -19.1227 0
      vertex -21.8691 20.5364 0
      vertex -21.8691 -20.5364 0
    endloop
  endfacet
  facet normal 0 0 -1
    outer loop
      vertex -23.1154 -19.1227 0
      vertex -23.1154 19.1227 0
      vertex -21.8691 20.5364 0
    endloop
  endfacet
  facet normal 0 0 -1
    outer loop
      vertex -24.2705 -17.6336 0
      vertex -23.1154 19.1227 0
      vertex -23.1154 -19.1227 0
    endloop
  endfacet
  facet normal 0 0 -1
    outer loop
      vertex -24.2705 -17.6336 0
      vertex -24.2705 17.6336 0
      vertex -23.1154 19.1227 0
    endloop
  endfacet
  facet normal 0 0 -1
    outer loop
      vertex -25.3298 -16.0748 0
      vertex -24.2705 17.6336 0
      vertex -24.2705 -17.6336 0
    endloop
  endfacet
  facet normal 0 0 -1
    outer loop
      vertex -25.3298 -16.0748 0
      vertex -25.3298 16.0748 0
      vertex -24.2705 17.6336 0
    endloop
  endfacet
  facet normal 0 0 -1
    outer loop
      vertex -26.2892 -14.4526 0
      vertex -25.3298 16.0748 0
      vertex -25.3298 -16.0748 0
    endloop
  endfacet
  facet normal 0 0 -1
    outer loop
      vertex -26.2892 -14.4526 0
      vertex -26.2892 14.4526 0
      vertex -25.3298 16.0748 0
    endloop
  endfacet
  facet normal 0 0 -1
    outer loop
      vertex -27.1448 -12.7734 0
      vertex -26.2892 14.4526 0
      vertex -26.2892 -14.4526 0
    endloop
  endfacet
  facet normal 0 0 -1
    outer loop
      vertex -27.1448 -12.7734 0
      vertex -27.1448 12.7734 0
      vertex -26.2892 14.4526 0
    endloop
  endfacet
  facet normal 0 0 -1
    outer loop
      vertex -27.8933 -11.0437 0
      vertex -27.1448 12.7734 0
      vertex -27.1448 -12.7734 0
    endloop
  endfacet
  facet normal 0 0 -1
    outer loop
      vertex -27.8933 -11.0437 0
      vertex -27.8933 11.0437 0
      vertex -27.1448 12.7734 0
    endloop
  endfacet
  facet normal 0 0 -1
    outer loop
      vertex -28.5317 -9.27051 0
      vertex -27.8933 11.0437 0
      vertex -27.8933 -11.0437 0
    endloop
  endfacet
  facet normal 0 0 -1
    outer loop
      vertex -28.5317 -9.27051 0
      vertex -28.5317 9.27051 0
      vertex -27.8933 11.0437 0
    endloop
  endfacet
  facet normal 0 0 -1
    outer loop
      vertex -29.0575 -7.4607 0
      vertex -28.5317 9.27051 0
      vertex -28.5317 -9.27051 0
    endloop
  endfacet
  facet normal 0 0 -1
    outer loop
      vertex -29.0575 -7.4607 0
      vertex -29.0575 7.4607 0
      vertex -28.5317 9.27051 0
    endloop
  endfacet
  facet normal 0 0 -1
    outer loop
      vertex -29.4686 -5.62144 0
      vertex -29.0575 7.4607 0
      vertex -29.0575 -7.4607 0
    endloop
  endfacet
  facet normal 0 0 -1
    outer loop
      vertex -29.4686 -5.62144 0
      vertex -29.4686 5.62144 0
      vertex -29.0575 7.4607 0
    endloop
  endfacet
  facet normal 0 0 -1
    outer loop
      vertex -29.7634 -3.76 0
      vertex -29.4686 5.62144 0
      vertex -29.4686 -5.62144 0
    endloop
  endfacet
  facet normal 0 0 -1
    outer loop
      vertex -29.7634 -3.76 0
      vertex -29.7634 3.76 0
      vertex -29.4686 5.62144 0
    endloop
  endfacet
  facet normal 0 0 -1
    outer loop
      vertex -29.9408 -1.88372 0
      vertex -29.7634 3.76 0
      vertex -29.7634 -3.76 0
    endloop
  endfacet
  facet normal 0 0 -1
    outer loop
      vertex -29.9408 -1.88372 0
      vertex -29.9408 1.88372 0
      vertex -29.7634 3.76 0
    endloop
  endfacet
  facet normal 0 -0 -1
    outer loop
      vertex -29.9408 1.88372 0
      vertex -29.9408 -1.88372 0
      vertex -30 3.67394e-15 0
    endloop
  endfacet
  facet normal 0 0 1
    outer loop
      vertex 29.9408 1.88372 20
      vertex 29.9408 -1.88372 20
      vertex 30 0 20
    endloop
  endfacet
  facet normal 0 0 1
    outer loop
      vertex 29.7634 3.76 20
      vertex 29.9408 -1.88372 20
      vertex 29.9408 1.88372 20
    endloop
  endfacet
  facet normal 0 0 1
    outer loop
      vertex 29.7634 3.76 20
      vertex 29.7634 -3.76 20
      vertex 29.9408 -1.88372 20
    endloop
  endfacet
  facet normal 0 0 1
    outer loop
      vertex 29.4686 5.62144 20
      vertex 29.7634 -3.76 20
      vertex 29.7634 3.76 20
    endloop
  endfacet
  facet normal 0 0 1
    outer loop
      vertex 29.4686 5.62144 20
      vertex 29.4686 -5.62144 20
      vertex 29.7634 -3.76 20
    endloop
  endfacet
  facet normal 0 0 1
    outer loop
      vertex 29.0575 7.4607 20
      vertex 29.4686 -5.62144 20
      vertex 29.4686 5.62144 20
    endloop
  endfacet
  facet normal 0 0 1
    outer loop
      vertex 29.0575 7.4607 20
      vertex 29.0575 -7.4607 20
      vertex 29.4686 -5.62144 20
    endloop
  endfacet
  facet normal 0 0 1
    outer loop
      vertex 28.5317 9.27051 20
      vertex 29.0575 -7.4607 20
      vertex 29.0575 7.4607 20
    endloop
  endfacet
  facet normal 0 0 1
    outer loop
      vertex 28.5317 9.27051 20
      vertex 28.5317 -9.27051 20
      vertex 29.0575 -7.4607 20
    endloop
  endfacet
  facet normal 0 0 1
    outer loop
      vertex 27.8933 11.0437 20
      vertex 28.5317 -9.27051 20
      vertex 28.5317 9.27051 20
    endloop
  endfacet
  facet normal 0 0 1
    outer loop
      vertex 27.8933 11.0437 20
      vertex 27.8933 -11.0437 20
      vertex 28.5317 -9.27051 20
    endloop
  endfacet
  facet normal 0 0 1
    outer loop
      vertex 27.1448 12.7734 20
      vertex 27.8933 -11.0437 20
      vertex 27.8933 11.0437 20
    endloop
  endfacet
  facet normal 0 0 1
    outer loop
      vertex 27.1448 12.7734 20
      vertex 27.1448 -12.7734 20
      vertex 27.8933 -11.0437 20
    endloop
  endfacet
  facet normal 0 0 1
    outer loop
      vertex 26.2892 14.4526 20
      vertex 27.1448 -12.7734 20
      vertex 27.1448 12.7734 20
    endloop
  endfacet
  facet normal 0 0 1
    outer loop
      vertex 26.2892 14.4526 20
      vertex 26.2892 -14.4526 20
      vertex 27.1448 -12.7734 20
    endloop
  endfacet
  facet normal 0 0 1
    outer loop
      vertex 25.3298 16.0748 20
      vertex 26.2892 -14.4526 20
      vertex 26.2892 14.4526 20
    endloop
  endfacet
  facet normal 0 0 1
    outer loop
      vertex 25.3298 16.0748 20
      vertex 25.3298 -16.0748 20
      vertex 26.2892 -14.4526 20
    endloop
  endfacet
  facet normal 0 0 1
    outer loop
      vertex 24.2705 17.6336 20
      vertex 25.3298 -16.0748 20
      vertex 25.3298 16.0748 20
    endloop
  endfacet
  facet normal 0 0 1
    outer loop
      vertex 24.2705 17.6336 20
      vertex 24.2705 -17.6336 20
      vertex 25.3298 -16.0748 20
    endloop
  endfacet
  facet normal 0 0 1
    outer loop
      vertex 23.1154 19.1227 20
      vertex 24.2705 -17.6336 20
      vertex 24.2705 17.6336 20
    endloop
  endfacet
  facet normal 0 0 1
    outer loop
      vertex 23.1154 19.1227 20
      vertex 23.1154 -19.1227 20
      vertex 24.2705 -17.6336 20
    endloop
  endfacet
  facet normal 0 0 1
    outer loop
      vertex 21.8691 20.5364 20
      vertex 23.1154 -19.1227 20
      vertex 23.1154 19.1227 20
    endloop
  endfacet
  facet normal 0 0 1
    outer loop
      vertex 21.8691 20.5364 20
      vertex 21.8691 -20.5364 20
      vertex 23.1154 -19.1227 20
    endloop
  endfacet
  facet normal 0 0 1
    outer loop
      vertex 20.5364 21.8691 20
      vertex 21.8691 -20.5364 20
      vertex 21.8691 20.5364 20
    endloop
  endfacet
  facet normal 0 0 1
    outer loop
      vertex 20.5364 21.8691 20
      vertex 20.5364 -21.8691 20
      vertex 21.8691 -20.5364 20
    endloop
  endfacet
  facet normal 0 0 1
    outer loop
      vertex 19.1227 23.1154 20
      vertex 20.5364 -21.8691 20
      vertex 20.5364 21.8691 20
    endloop
  endfacet
  facet normal 0 0 1
    outer loop
      vertex 19.1227 23.1154 20
      vertex 19.1227 -23.1154 20
      vertex 20.5364 -21.8691 20
    endloop
  endfacet
  facet normal 0 0 1
    outer loop
      vertex 17.6336 24.2705 20
      vertex 19.1227 -23.1154 20
      vertex 19.1227 23.1154 20
    endloop
  endfacet
  facet normal 0 0 1
    outer loop
      vertex 17.6336 24.2705 20
      vertex 17.6336 -24.2705 20
      vertex 19.1227 -23.1154 20
    endloop
  endfacet
  facet normal 0 0 1
    outer loop
      vertex 16.0748 25.3298 20
      vertex 17.6336 -24.2705 20
      vertex 17.6336 24.2705 20
    endloop
  endfacet
  facet normal 0 0 1
    outer loop
      vertex 16.0748 25.3298 20
      vertex 16.0748 -25.3298 20
      vertex 17.6336 -24.2705 20
    endloop
  endfacet
  facet normal 0 0 1
    outer loop
      vertex 14.4526 26.2892 20
      vertex 16.0748 -25.3298 20
      vertex 16.0748 25.3298 20
    endloop
  endfacet
  facet normal 0 0 1
    outer loop
      vertex 14.4526 26.2892 20
      vertex 14.4526 -26.2892 20
      vertex 16.0748 -25.3298 20
    endloop
  endfacet
  facet normal 0 0 1
    outer loop
      vertex 12.7734 27.1448 20
      vertex 14.4526 -26.2892 20
      vertex 14.4526 26.2892 20
    endloop
  endfacet
  facet normal 0 0 1
    outer loop
      vertex 12.7734 27.1448 20
      vertex 12.7734 -27.1448 20
      vertex 14.4526 -26.2892 20
    endloop
  endfacet
  facet normal 0 0 1
    outer loop
      vertex 11.0437 27.8933 20
      vertex 12.7734 -27.1448 20
      vertex 12.7734 27.1448 20
    endloop
  endfacet
  facet normal 0 0 1
    outer loop
      vertex 11.0437 27.8933 20
      vertex 11.0437 -27.8933 20
      vertex 12.7734 -27.1448 20
    endloop
  endfacet
  facet normal 0 0 1
    outer loop
      vertex 9.27051 28.5317 20
      vertex 11.0437 -27.8933 20
      vertex 11.0437 27.8933 20
    endloop
  endfacet
  facet normal 0 0 1
    outer loop
      vertex 9.27051 28.5317 20
      vertex 9.27051 -28.5317 20
      vertex 11.0437 -27.8933 20
    endloop
  endfacet
  facet normal 0 0 1
    outer loop
      vertex 7.4607 29.0575 20
      vertex 9.27051 -28.5317 20
      vertex 9.27051 28.5317 20
    endloop
  endfacet
  facet normal 0 0 1
    outer loop
      vertex 7.4607 29.0575 20
      vertex 7.4607 -29.0575 20
      vertex 9.27051 -28.5317 20
    endloop
  endfacet
  facet normal 0 0 1
    outer loop
      vertex 5.62144 29.4686 20
      vertex 7.4607 -29.0575 20
      vertex 7.4607 29.0575 20
    endloop
  endfacet
  facet normal 0 0 1
    outer loop
      vertex 5.62144 29.4686 20
      vertex 5.62144 -29.4686 20
      vertex 7.4607 -29.0575 20
    endloop
  endfacet
  facet normal 0 0 1
    outer loop
      vertex 3.76 29.7634 20
      vertex 5.62144 -29.4686 20
      vertex 5.62144 29.4686 20
    endloop
  endfacet
  facet normal 0 0 1
    outer loop
      vertex 3.76 29.7634 20
      vertex 3.76 -29.7634 20
      vertex 5.62144 -29.4686 20
    endloop
  endfacet
  facet normal 0 0 1
    outer loop
      vertex 1.88372 29.9408 20
      vertex 3.76 -29.7634 20
      vertex 3.76 29.7634 20
    endloop
  endfacet
  facet normal 0 0 1
    outer loop
      vertex 1.88372 29.9408 20
      vertex 1.88372 -29.9408 20
      vertex 3.76 -29.7634 20
    endloop
  endfacet
  facet normal 0 0 1
    outer loop
      vertex 1.83697e-15 30 20
      vertex 1.88372 -29.9408 20
      vertex 1.88372 29.9408 20
    endloop
  endfacet
  facet normal 0 0 1
    outer loop
      vertex 1.83697e-15 30 20
      vertex -5.51091e-15 -30 20
      vertex 1.88372 -29.9408 20
    endloop
  endfacet
  facet normal -0 0 1
    outer loop
      vertex -1.88372 29.9408 20
      vertex -5.51091e-15 -30 20
      vertex 1.83697e-15 30 20
    endloop
  endfacet
  facet normal 0 0 1
    outer loop
      vertex -1.88372 29.9408 20
      vertex -1.88372 -29.9408 20
      vertex -5.51091e-15 -30 20
    endloop
  endfacet
  facet normal -0 0 1
    outer loop
      vertex -3.76 29.7634 20
      vertex -1.88372 -29.9408 20
      vertex -1.88372 29.9408 20
    endloop
  endfacet
  facet normal 0 0 1
    outer loop
      vertex -3.76 29.7634 20
      vertex -3.76 -29.7634 20
      vertex -1.88372 -29.9408 20
    endloop
  endfacet
  facet normal -0 0 1
    outer loop
      vertex -5.62144 29.4686 20
      vertex -3.76 -29.7634 20
      vertex -3.76 29.7634 20
    endloop
  endfacet
  facet normal 0 0 1
    outer loop
      vertex -5.62144 29.4686 20
      vertex -5.62144 -29.4686 20
      vertex -3.76 -29.7634 20
    endloop
  endfacet
  facet normal -0 0 1
    outer loop
      vertex -7.4607 29.0575 20
      vertex -5.62144 -29.4686 20
      vertex -5.62144 29.4686 20
    endloop
  endfacet
  facet normal 0 0 1
    outer loop
      vertex -7.4607 29.0575 20
      vertex -7.4607 -29.0575 20
      vertex -5.62144 -29.4686 20
    endloop
  endfacet
  facet normal -0 0 1
    outer loop
      vertex -9.27051 28.5317 20
      vertex -7.4607 -29.0575 20
      vertex -7.4607 29.0575 20
    endloop
  endfacet
  facet normal 0 0 1
    outer loop
      vertex -9.27051 28.5317 20
      vertex -9.27051 -28.5317 20
      vertex -7.4607 -29.0575 20
    endloop
  endfacet
  facet normal -0 0 1
    outer loop
      vertex -11.0437 27.8933 20
      vertex -9.27051 -28.5317 20
      vertex -9.27051 28.5317 20
    endloop
  endfacet
  facet normal 0 0 1
    outer loop
      vertex -11.0437 27.8933 20
      vertex -11.0437 -27.8933 20
      vertex -9.27051 -28.5317 20
    endloop
  endfacet
  facet normal -0 0 1
    outer loop
      vertex -12.7734 27.1448 20
      vertex -11.0437 -27.8933 20
      vertex -11.0437 27.8933 20
    endloop
  endfacet
  facet normal 0 0 1
    outer loop
      vertex -12.7734 27.1448 20
      vertex -12.7734 -27.1448 20
      vertex -11.0437 -27.8933 20
    endloop
  endfacet
  facet normal -0 0 1
    outer loop
      vertex -14.4526 26.2892 20
      vertex -12.7734 -27.1448 20
      vertex -12.7734 27.1448 20
    endloop
  endfacet
  facet normal 0 0 1
    outer loop
      vertex -14.4526 26.2892 20
      vertex -14.4526 -26.2892 20
      vertex -12.7734 -27.1448 20
    endloop
  endfacet
  facet normal -0 0 1
    outer loop
      vertex -16.0748 25.3298 20
      vertex -14.4526 -26.2892 20
      vertex -14.4526 26.2892 20
    endloop
  endfacet
  facet normal 0 0 1
    outer loop
      vertex -16.0748 25.3298 20
      vertex -16.0748 -25.3298 20
      vertex -14.4526 -26.2892 20
    endloop
  endfacet
  facet normal -0 0 1
    outer loop
      vertex -17.6336 24.2705 20
      vertex -16.0748 -25.3298 20
      vertex -16.0748 25.3298 20
    endloop
  endfacet
  facet normal 0 0 1
    outer loop
      vertex -17.6336 24.2705 20
      vertex -17.6336 -24.2705 20
      vertex -16.0748 -25.3298 20
    endloop
  endfacet
  facet normal -0 0 1
    outer loop
      vertex -19.1227 23.1154 20
      vertex -17.6336 -24.2705 20
      vertex -17.6336 24.2705 20
    endloop
  endfacet
  facet normal 0 0 1
    outer loop
      vertex -19.1227 23.1154 20
      vertex -19.1227 -23.1154 20
      vertex -17.6336 -24.2705 20
    endloop
  endfacet
  facet normal -0 0 1
    outer loop
      vertex -20.5364 21.8691 20
      vertex -19.1227 -23.1154 20
      vertex -19.1227 23.1154 20
    endloop
  endfacet
  facet normal 0 0 1
    outer loop
      vertex -20.5364 21.8691 20
      vertex -20.5364 -21.8691 20
      vertex -19.1227 -23.1154 20
    endloop
  endfacet
  facet normal -0 0 1
    outer loop
      vertex -21.8691 20.5364 20
      vertex -20.5364 -21.8691 20
      vertex -20.5364 21.8691 20
    endloop
  endfacet
  facet normal 0 0 1
    outer loop
      vertex -21.8691 20.5364 20
      vertex -21.8691 -20.5364 20
      vertex -20.5364 -21.8691 20
    endloop
  endfacet
  facet normal -0 0 1
    outer loop
      vertex -23.1154 19.1227 20
      vertex -21.8691 -20.5364 20
      vertex -21.8691 20.5364 20
    endloop
  endfacet
  facet normal 0 0 1
    outer loop
      vertex -23.1154 19.1227 20
      vertex -23.1154 -19.1227 20
      vertex -21.8691 -20.5364 20
    endloop
  endfacet
  facet normal -0 0 1
    outer loop
      vertex -24.2705 17.6336 20
      vertex -23.1154 -19.1227 20
      vertex -23.1154 19.1227 20
    endloop
  endfacet
  facet normal 0 0 1
    outer loop
      vertex -24.2705 17.6336 20
      vertex -24.2705 -17.6336 20
      vertex -23.1154 -19.1227 20
    endloop
  endfacet
  facet normal -0 0 1
    outer loop
      vertex -25.3298 16.0748 20
      vertex -24.2705 -17.6336 20
      vertex -24.2705 17.6336 20
    endloop
  endfacet
  facet normal 0 0 1
    outer loop
      vertex -25.3298 16.0748 20
      vertex -25.3298 -16.0748 20
      vertex -24.2705 -17.6336 20
    endloop
  endfacet
  facet normal -0 0 1
    outer loop
      vertex -26.2892 14.4526 20
      vertex -25.3298 -16.0748 20
      vertex -25.3298 16.0748 20
    endloop
  endfacet
  facet normal 0 0 1
    outer loop
      vertex -26.2892 14.4526 20
      vertex -26.2892 -14.4526 20
      vertex -25.3298 -16.0748 20
    endloop
  endfacet
  facet normal -0 0 1
    outer loop
      vertex -27.1448 12.7734 20
      vertex -26.2892 -14.4526 20
      vertex -26.2892 14.4526 20
    endloop
  endfacet
  facet normal 0 0 1
    outer loop
      vertex -27.1448 12.7734 20
      vertex -27.1448 -12.7734 20
      vertex -26.2892 -14.4526 20
    endloop
  endfacet
  facet normal -0 0 1
    outer loop
      vertex -27.8933 11.0437 20
      vertex -27.1448 -12.7734 20
      vertex -27.1448 12.7734 20
    endloop
  endfacet
  facet normal 0 0 1
    outer loop
      vertex -27.8933 11.0437 20
      vertex -27.8933 -11.0437 20
      vertex -27.1448 -12.7734 20
    endloop
  endfacet
  facet normal -0 0 1
    outer loop
      vertex -28.5317 9.27051 20
      vertex -27.8933 -11.0437 20
      vertex -27.8933 11.0437 20
    endloop
  endfacet
  facet normal 0 0 1
    outer loop
      vertex -28.5317 9.27051 20
      vertex -28.5317 -9.27051 20
      vertex -27.8933 -11.0437 20
    endloop
  endfacet
  facet normal -0 0 1
    outer loop
      vertex -29.0575 7.4607 20
      vertex -28.5317 -9.27051 20
      vertex -28.5317 9.27051 20
    endloop
  endfacet
  facet normal 0 0 1
    outer loop
      vertex -29.0575 7.4607 20
      vertex -29.0575 -7.4607 20
      vertex -28.5317 -9.27051 20
    endloop
  endfacet
  facet normal -0 0 1
    outer loop
      vertex -29.4686 5.62144 20
      vertex -29.0575 -7.4607 20
      vertex -29.0575 7.4607 20
    endloop
  endfacet
  facet normal 0 0 1
    outer loop
      vertex -29.4686 5.62144 20
      vertex -29.4686 -5.62144 20
      vertex -29.0575 -7.4607 20
    endloop
  endfacet
  facet normal -0 0 1
    outer loop
      vertex -29.7634 3.76 20
      vertex -29.4686 -5.62144 20
      vertex -29.4686 5.62144 20
    endloop
  endfacet
  facet normal 0 0 1
    outer loop
      vertex -29.7634 3.76 20
      vertex -29.7634 -3.76 20
      vertex -29.4686 -5.62144 20
    endloop
  endfacet
  facet normal -0 0 1
    outer loop
      vertex -29.9408 1.88372 20
      vertex -29.7634 -3.76 20
      vertex -29.7634 3.76 20
    endloop
  endfacet
  facet normal 0 0 1
    outer loop
      vertex -29.9408 1.88372 20
      vertex -29.9408 -1.88372 20
      vertex -29.7634 -3.76 20
    endloop
  endfacet
  facet normal 0 -0 1
    outer loop
      vertex -29.9408 -1.88372 20
      vertex -29.9408 1.88372 20
      vertex -30 3.67394e-15 20
    endloop
  endfacet
endsolid OpenSCAD_Model
